<svg width="2802" height="2846" viewBox="0 0 2802 2846" fill="none" xmlns="http://www.w3.org/2000/svg">
<path d="M2391.66 2608.65C1844.57 2924.51 957.733 2924.51 410.645 2608.65C42.0477 2395.9 -78.1558 2093.78 49.9688 1823.14C55.3156 1811.72 61.1905 1800.36 67.4614 1789.14C85.0205 1757.69 105.133 1727.73 127.596 1699.57C195.124 1614.55 289.452 1534.94 410.976 1464.97C958.063 1149.11 1844.9 1149.11 2391.99 1464.97C2573.05 1569.46 2694.18 1695.54 2755.37 1828.95C2769.42 1859.44 2780.48 1891.23 2788.38 1923.87C2791.61 1937.07 2794.25 1950.27 2796.3 1963.47C2832.34 2194.11 2697.48 2432.08 2391.66 2608.65Z" fill="#F5F5F5"/>
<path d="M2796.1 1963.41L1544.56 2685.95L49.9688 1823.07C55.3155 1811.65 61.1904 1800.3 67.4613 1789.08C85.0204 1757.62 105.133 1727.66 127.596 1699.5C195.124 1614.55 289.452 1534.94 410.975 1464.97C958.063 1149.11 1844.9 1149.11 2391.99 1464.97C2573.05 1569.46 2694.18 1695.54 2755.37 1828.95C2769.42 1859.44 2780.48 1891.23 2788.38 1923.87C2791.41 1937 2793.92 1950.14 2796.1 1963.41Z" fill="#BA68C8"/>
<path opacity="0.4" d="M2796.1 1963.41L1544.56 2685.95L49.9688 1823.07C55.3155 1811.65 61.1904 1800.3 67.4613 1789.08C85.0204 1757.62 105.133 1727.66 127.596 1699.5C195.124 1614.55 289.452 1534.94 410.975 1464.97C958.063 1149.11 1844.9 1149.11 2391.99 1464.97C2573.05 1569.46 2694.18 1695.54 2755.37 1828.95C2769.42 1859.44 2780.48 1891.23 2788.38 1923.87C2791.41 1937 2793.92 1950.14 2796.1 1963.41Z" fill="black"/>
<path d="M2788.18 1923.87L1544.56 2641.85L67.7253 1789.08C85.2844 1757.62 105.397 1727.66 127.86 1699.5C195.124 1614.55 289.452 1534.94 410.975 1464.97C958.063 1149.11 1844.9 1149.11 2391.99 1464.97C2573.05 1569.46 2694.18 1695.54 2755.37 1828.95C2769.35 1859.45 2780.34 1891.24 2788.18 1923.87Z" fill="#BA68C8"/>
<path d="M2755.04 1828.95L1553.67 2522.71L127.86 1699.5C195.124 1614.55 289.452 1534.94 410.975 1464.97C958.063 1149.11 1844.9 1149.11 2391.99 1464.97C2572.72 1569.46 2693.85 1695.34 2755.04 1828.95Z" fill="#BA68C8"/>
<path d="M2755.04 1828.95L1553.67 2522.71L127.86 1699.5C195.124 1614.55 289.452 1534.94 410.975 1464.97C958.063 1149.11 1844.9 1149.11 2391.99 1464.97C2572.72 1569.46 2693.85 1695.34 2755.04 1828.95Z" fill="#BA68C8"/>
<path opacity="0.4" d="M2755.04 1828.95L1553.67 2522.71L127.86 1699.5C195.124 1614.55 289.452 1534.94 410.975 1464.97C958.063 1149.11 1844.9 1149.11 2391.99 1464.97C2572.72 1569.46 2693.85 1695.34 2755.04 1828.95Z" fill="white"/>
<path opacity="0.2" d="M1686.94 2240.12C1555.45 2316.03 1342.37 2316.03 1210.88 2240.12C1122.3 2188.96 1093.45 2116.42 1124.21 2051.33C1125.53 2048.56 1126.92 2045.85 1128.43 2043.15C1132.65 2035.59 1137.49 2028.39 1142.89 2021.63C1161.84 1998.77 1184.9 1979.65 1210.88 1965.26C1342.37 1889.41 1555.45 1889.41 1686.94 1965.26C1730.44 1990.41 1759.55 2020.7 1774.27 2052.72C1777.63 2060.06 1780.29 2067.71 1782.19 2075.56C1782.94 2078.61 1783.53 2081.69 1783.98 2084.8C1792.82 2140.51 1760.41 2197.68 1686.94 2240.12Z" fill="black"/>
<path opacity="0.2" d="M2314.23 1969.35C2238.19 2013.25 2114.95 2013.25 2038.97 1969.35C1987.75 1939.58 1971.05 1897.79 1988.61 1860.37C1989.4 1858.78 1990.19 1857.2 1991.05 1855.61C1993.51 1851.26 1996.32 1847.12 1999.43 1843.2C2010.46 1829.94 2023.9 1818.87 2039.04 1810.6C2115.01 1766.7 2238.25 1766.7 2314.3 1810.6C2339.45 1825.12 2356.28 1842.68 2364.79 1861.16C2366.72 1865.41 2368.27 1869.83 2369.41 1874.36C2369.81 1876.21 2370.21 1878.06 2370.47 1879.84C2375.42 1911.72 2356.74 1944.79 2314.23 1969.35Z" fill="black"/>
<path opacity="0.2" d="M902.747 1953.97L535.271 1741.55C531.474 1739.36 528.32 1736.21 526.127 1732.42C523.934 1728.62 522.779 1724.31 522.779 1719.93C522.779 1715.55 523.934 1711.24 526.127 1707.45C528.32 1703.65 531.474 1700.5 535.271 1698.31L681.945 1613.62C693.746 1606.81 707.132 1603.22 720.758 1603.22C734.385 1603.22 747.771 1606.81 759.572 1613.62L1127.05 1825.78C1130.85 1827.97 1134 1831.12 1136.19 1834.91C1138.39 1838.71 1139.54 1843.01 1139.54 1847.4C1139.54 1851.78 1138.39 1856.08 1136.19 1859.88C1134 1863.68 1130.85 1866.83 1127.05 1869.01L980.374 1953.7C968.597 1960.56 955.223 1964.19 941.596 1964.24C927.97 1964.28 914.571 1960.74 902.747 1953.97Z" fill="black"/>
<path d="M2369.68 1661.55L2427.5 1695.14C2427.5 1695.14 2398.33 1602.01 2414.3 1508.27C2418.19 1486.19 2426.18 1465.03 2437.87 1445.89C2442.36 1436.45 2477.47 1377.97 2446.58 1351.04C2415.69 1324.1 2343.8 1377.44 2347.04 1522.07C2348.66 1569.33 2356.27 1616.2 2369.68 1661.55Z" fill="#BA68C8"/>
<path opacity="0.3" d="M2369.68 1661.55L2427.5 1695.14C2427.5 1695.14 2398.33 1602.01 2414.3 1508.27C2418.19 1486.19 2426.18 1465.03 2437.87 1445.89C2442.36 1436.45 2477.47 1377.97 2446.58 1351.04C2415.69 1324.1 2343.8 1377.44 2347.04 1522.07C2348.66 1569.33 2356.27 1616.2 2369.68 1661.55Z" fill="black"/>
<path d="M2396.55 1679.9C2396 1679.89 2395.46 1679.72 2395.01 1679.4C2394.57 1679.08 2394.23 1678.63 2394.04 1678.11C2394.04 1677.52 2371.92 1616.79 2373.05 1519.36C2374.17 1421.93 2425.85 1369.06 2426.25 1368.53C2426.5 1368.28 2426.8 1368.08 2427.13 1367.94C2427.46 1367.81 2427.81 1367.74 2428.16 1367.74C2428.52 1367.74 2428.87 1367.81 2429.2 1367.94C2429.53 1368.08 2429.83 1368.28 2430.08 1368.53C2430.33 1368.78 2430.53 1369.08 2430.67 1369.41C2430.8 1369.74 2430.87 1370.09 2430.87 1370.44C2430.87 1370.8 2430.8 1371.15 2430.67 1371.48C2430.53 1371.81 2430.33 1372.11 2430.08 1372.36C2429.55 1372.89 2379.58 1423.71 2378.46 1519.43C2377.34 1615.14 2398.86 1675.67 2399.12 1676.27C2399.34 1676.94 2399.28 1677.67 2398.98 1678.31C2398.67 1678.95 2398.13 1679.45 2397.47 1679.7C2397.18 1679.83 2396.86 1679.9 2396.55 1679.9Z" fill="white"/>
<path d="M2414.5 1687.82L2510.08 1743.99C2510.08 1743.99 2553.85 1737.39 2550.48 1696.4C2547.11 1655.41 2529.42 1645.51 2551.54 1627.42C2573.65 1609.33 2579.39 1608.08 2578.34 1590.39C2577.28 1572.7 2565.13 1564.91 2559.72 1557.84C2554.31 1550.78 2538.47 1536.06 2549.49 1514.67C2560.51 1493.29 2575.43 1472.63 2553.25 1462.86C2540.05 1456.98 2517.81 1464.31 2503.09 1479.95C2488.37 1495.6 2476.15 1506.89 2462.16 1510.52C2448.17 1514.15 2419.12 1514.41 2420.05 1538.5C2420.97 1562.6 2427.31 1570.85 2421.5 1581.54C2410.47 1601.68 2363.47 1612.5 2414.5 1687.82Z" fill="#BA68C8"/>
<path d="M2453.45 1713.43C2452.77 1713.42 2452.11 1713.15 2451.61 1712.69C2451.12 1712.23 2450.8 1711.6 2450.74 1710.92C2450.74 1709.47 2440.24 1566.95 2539.26 1473.29C2539.51 1473.04 2539.81 1472.84 2540.14 1472.7C2540.47 1472.56 2540.82 1472.49 2541.17 1472.49C2541.53 1472.49 2541.88 1472.56 2542.21 1472.7C2542.54 1472.84 2542.84 1473.04 2543.09 1473.29C2543.58 1473.8 2543.85 1474.49 2543.85 1475.2C2543.85 1475.91 2543.58 1476.6 2543.09 1477.12C2445.99 1568.87 2456.15 1708.88 2456.28 1710.26C2456.31 1710.62 2456.27 1710.97 2456.16 1711.31C2456.04 1711.65 2455.87 1711.96 2455.63 1712.23C2455.4 1712.5 2455.12 1712.73 2454.8 1712.89C2454.48 1713.05 2454.13 1713.14 2453.78 1713.17L2453.45 1713.43Z" fill="white"/>
<path d="M2470.48 1591.31C2469.79 1591.31 2469.13 1591.06 2468.63 1590.59C2468.13 1590.12 2467.82 1589.49 2467.77 1588.8C2467.02 1577.87 2464.07 1567.21 2459.09 1557.45C2454.11 1547.7 2447.2 1539.05 2438.79 1532.04C2438.29 1531.59 2437.97 1530.97 2437.9 1530.3C2437.83 1529.63 2438.01 1528.96 2438.4 1528.42C2438.8 1527.88 2439.38 1527.5 2440.04 1527.36C2440.7 1527.23 2441.38 1527.34 2441.96 1527.68C2451.08 1535.1 2458.56 1544.32 2463.93 1554.77C2469.3 1565.23 2472.45 1576.68 2473.18 1588.41C2473.21 1588.76 2473.17 1589.12 2473.05 1589.46C2472.94 1589.8 2472.77 1590.11 2472.53 1590.38C2472.3 1590.65 2472.02 1590.87 2471.7 1591.03C2471.38 1591.19 2471.03 1591.29 2470.67 1591.31H2470.48Z" fill="white"/>
<path d="M2463.48 1615.6C2462.95 1615.62 2462.43 1615.48 2461.98 1615.2C2461.53 1614.92 2461.18 1614.51 2460.97 1614.03C2460.75 1613.55 2460.69 1613.01 2460.79 1612.49C2460.88 1611.97 2461.13 1611.49 2461.5 1611.11C2462.56 1609.93 2487.44 1582.93 2545.13 1590.92C2545.8 1591.06 2546.38 1591.45 2546.78 1592.01C2547.17 1592.57 2547.33 1593.25 2547.24 1593.92C2547.15 1594.6 2546.81 1595.21 2546.28 1595.65C2545.76 1596.08 2545.09 1596.3 2544.41 1596.26C2489.75 1588.74 2465.72 1614.48 2465.53 1614.75C2465.27 1615.03 2464.95 1615.25 2464.6 1615.4C2464.24 1615.55 2463.86 1615.62 2463.48 1615.6Z" fill="white"/>
<path d="M956.743 1336.32L768.153 1227.47V890.025C768.153 872.269 774.424 858.539 785.25 852.268C790.414 849.566 796.22 848.328 802.038 848.689C807.855 849.049 813.463 850.995 818.255 854.314L914.035 909.828C937.996 923.624 956.743 959.203 956.743 990.756V1336.32ZM782.279 1219.35L942.617 1311.76V990.954C942.617 964.88 926.312 933.394 906.972 922.238L810.862 866.724C808.209 864.811 805.107 863.617 801.857 863.259C798.606 862.9 795.318 863.389 792.313 864.678C785.712 868.308 782.279 877.88 782.279 890.223V1219.35Z" fill="#37474F"/>
<path d="M912.649 897.22L830.071 849.561C827.441 848.043 824.458 847.244 821.422 847.244C818.385 847.245 815.403 848.044 812.773 849.563C810.144 851.082 807.961 853.266 806.443 855.896C804.926 858.526 804.128 861.509 804.129 864.546C804.148 867.579 804.955 870.555 806.471 873.182C807.987 875.809 810.159 877.996 812.776 879.53L895.354 927.189C897.984 928.707 900.967 929.506 904.003 929.506C907.04 929.506 910.022 928.706 912.652 927.187C915.281 925.668 917.464 923.484 918.981 920.854C920.499 918.224 921.297 915.241 921.296 912.205C921.277 909.172 920.471 906.196 918.955 903.569C917.438 900.942 915.265 898.754 912.649 897.22Z" fill="#BA68C8"/>
<path d="M974.499 1809.67C973.771 1822.98 969.92 1835.94 963.257 1847.48C956.594 1859.03 947.308 1868.85 936.148 1876.14C914.959 1888.36 897.73 1878.45 897.73 1853.96C898.496 1840.69 902.373 1827.78 909.046 1816.28C915.719 1804.78 925.003 1795.01 936.148 1787.76C957.271 1775.35 974.499 1785.25 974.499 1809.67Z" fill="#263238"/>
<path d="M907.698 1877.93L928.491 1889.87V1839.84L907.698 1877.93Z" fill="#263238"/>
<path d="M991.86 1819.77C991.127 1833.07 987.273 1846.02 980.61 1857.55C973.948 1869.09 964.663 1878.89 953.509 1886.18C932.319 1898.45 915.157 1888.49 915.157 1864.06C915.88 1850.75 919.729 1837.8 926.392 1826.25C933.055 1814.7 942.345 1804.88 953.509 1797.59C974.698 1785.38 991.86 1795.28 991.86 1819.77Z" fill="#455A64"/>
<path d="M1031.47 1260.14V1766.3C1031.47 1780.5 1026.52 1790.26 1018.73 1794.03L862.481 1885.05V1325.69L1025.92 1232.35C1029.46 1241.2 1031.34 1250.62 1031.47 1260.14Z" fill="#BA68C8"/>
<path opacity="0.4" d="M1031.47 1260.14V1766.3C1031.47 1780.5 1026.52 1790.26 1018.73 1794.03L862.481 1885.05V1325.69L1025.92 1232.35C1029.46 1241.2 1031.34 1250.62 1031.47 1260.14Z" fill="black"/>
<path d="M1025.92 1232.02L862.481 1325.69L709.537 1230.17L563.721 1138.95L719.834 1048.18L720.626 1047.72C724.126 1045.8 728.098 1044.91 732.081 1045.16C736.065 1045.41 739.898 1046.77 743.136 1049.11L997.999 1196.31C1010.91 1204.89 1020.7 1217.42 1025.92 1232.02Z" fill="#BA68C8"/>
<path opacity="0.2" d="M1025.92 1232.02L950.472 1275.13L938.128 1282.19L862.481 1325.69L709.537 1230.17L563.721 1138.95L640.689 1094.19L654.749 1086.01L719.834 1048.18L720.626 1047.72C724.126 1045.8 728.098 1044.91 732.081 1045.16C736.065 1045.41 739.898 1046.77 743.136 1049.11L997.999 1196.31C1010.91 1204.89 1020.7 1217.42 1025.92 1232.02Z" fill="black"/>
<path d="M840.698 1883.21L585.835 1736.07C567.286 1725.31 552.236 1696.47 552.236 1671.84V1165.68C552.236 1140.93 567.286 1129.57 585.835 1140.27L840.698 1287.47C859.247 1298.16 874.297 1327.08 874.297 1351.63V1857.79C874.297 1882.55 859.247 1893.9 840.698 1883.21Z" fill="#BA68C8"/>
<path d="M959.251 1828.75V1312.88C959.055 1299.81 956.062 1286.94 950.472 1275.13C944.297 1260.52 933.88 1248.1 920.57 1239.48L654.749 1085.68L640.689 1093.86L913.507 1251.69C924.565 1259.18 933.137 1269.8 938.128 1282.19C942.559 1291.83 944.963 1302.28 945.191 1312.88V1836.93L959.251 1828.75Z" fill="#37474F"/>
<path opacity="0.2" d="M648.61 1733.5C644.564 1730.54 641.263 1726.68 638.971 1722.22C636.679 1717.76 635.459 1712.83 635.408 1707.82V1235.32C635.408 1225.42 641.415 1220.87 648.61 1225.16C652.664 1228.11 655.97 1231.97 658.263 1236.43C660.556 1240.89 661.771 1245.82 661.812 1250.83V1723.33C661.812 1733.23 655.805 1737.79 648.61 1733.5Z" fill="black"/>
<path opacity="0.2" d="M713.3 1762.67C709.245 1759.72 705.939 1755.86 703.647 1751.4C701.354 1746.94 700.138 1742.01 700.098 1736.99V1264.56C700.098 1254.66 706.105 1250.11 713.3 1254.4C717.346 1257.36 720.647 1261.22 722.939 1265.68C725.23 1270.13 726.45 1275.06 726.502 1280.08V1752.51C726.7 1762.41 720.693 1766.96 713.3 1762.67Z" fill="black"/>
<path opacity="0.2" d="M778.187 1798.32C774.14 1795.36 770.84 1791.5 768.548 1787.04C766.256 1782.58 765.036 1777.65 764.985 1772.64V1300.14C764.985 1290.31 770.992 1285.75 778.187 1290.04C782.232 1292.99 785.533 1296.84 787.825 1301.28C790.117 1305.73 791.338 1310.65 791.389 1315.66V1788.15C791.653 1798.05 785.646 1802.61 778.187 1798.32Z" fill="black"/>
<path d="M1568.19 2009.75C1568.19 2009.75 1559.94 2011.79 1562.25 2030.61C1564.56 2049.42 1567.46 2073.51 1567.46 2073.51C1567.46 2073.51 1570.17 2112.52 1569.97 2138C1569.77 2163.48 1568.32 2197.41 1573.47 2215.83C1578.62 2234.25 1589.45 2253.39 1606.01 2252.73C1622.58 2252.07 1661.66 2227.78 1657.83 2163.29C1656.84 2145.73 1638.69 2086.38 1638.69 2086.38C1638.69 2086.38 1641.59 2028.69 1641.2 2014.5C1641.29 2012.21 1640.72 2009.94 1639.54 2007.97C1638.37 2006 1636.65 2004.42 1634.6 2003.41L1568.19 2009.75Z" fill="#37474F"/>
<path d="M1558.88 1957.4L1569.05 2014.9C1569.05 2014.9 1574 2032.26 1605.02 2032.26C1612.06 2032.4 1618.92 2030.02 1624.37 2025.56C1629.81 2021.09 1633.49 2014.83 1634.73 2007.9L1636.58 1952.85L1558.88 1957.4Z" fill="#945959"/>
<path d="M1231.21 872.203L1202.63 925.01L1065.2 973.065C1065.2 973.065 1041.76 957.289 1039.78 959.203C1037.8 961.117 1029.16 979.006 1061.43 994.32L1085.4 1037.75C1085.4 1037.75 1251.74 1004.75 1266.13 994.32C1280.52 983.891 1304.15 934.912 1304.15 934.912C1304.15 934.912 1287.78 870.882 1231.21 872.203Z" fill="#945959"/>
<path d="M1338.08 2081.37L1315.44 2066.71V2037.4L1337.22 2039.38L1338.08 2081.37Z" fill="#263238"/>
<path d="M1368.97 2006.78L1368.12 2063.21L1338.08 2081.37L1334.65 2033.25C1334.65 2033.25 1358.15 2006.38 1368.97 2006.78Z" fill="#263238"/>
<path d="M1286.86 1940.57C1286.86 1940.57 1285.27 1941.82 1266.2 1992.98C1247.12 2044.14 1227.25 2063.08 1215.7 2072.65C1204.15 2082.23 1177.94 2099.98 1177.94 2113.65C1177.94 2127.31 1200.05 2138.07 1232.4 2135.3C1264.74 2132.52 1310.29 2124.6 1321.97 2085.79C1325.8 2073.25 1326.53 2050.34 1341.18 2034.57C1355.84 2018.79 1368.97 2006.78 1368.97 2006.78C1368.97 2006.78 1370.49 1955.02 1355.77 1941.16L1286.86 1940.57Z" fill="#37474F"/>
<path d="M1285.41 1877.66L1286.99 1945.78C1286.99 1945.78 1289.43 1966.51 1321.38 1962.35C1353.33 1958.19 1355.44 1943.47 1355.44 1943.47L1369.9 1877.46L1285.41 1877.66Z" fill="#945959"/>
<path d="M1413.53 1546.89C1411.74 1555.24 1410.83 1563.76 1410.82 1572.3C1410.83 1580.22 1411.62 1588.11 1413.2 1595.87C1418.35 1620.73 1418.35 1646.39 1413.2 1671.25L1370.1 1877.66C1357.07 1884.52 1342.57 1888.11 1327.85 1888.11C1313.13 1888.11 1298.63 1884.52 1285.6 1877.66C1285.6 1877.66 1282.96 1674.09 1282.96 1522.6C1282.96 1238.23 1315.57 1088.71 1315.57 1088.71H1465.41V1309.52L1415.64 1538.17L1413.53 1546.89Z" fill="#945959"/>
<path d="M1484.89 1246.48L1432.87 1529.13C1427.49 1532.9 1421.63 1535.92 1415.44 1538.11C1360.99 1557.91 1282.76 1522.53 1282.76 1522.53C1282.76 1238.16 1315.37 1088.65 1315.37 1088.65L1477.03 1088.05L1484.89 1246.48Z" fill="#37474F"/>
<path d="M1482.91 1257.43L1465.22 1146.54H1347.26C1347.26 1146.54 1353.53 1214.73 1404.75 1248.92L1443.5 1471.31L1482.91 1257.43Z" fill="#263238"/>
<path d="M1647.4 1638.84L1636.58 1952.78C1625.86 1961.85 1612.5 1967.19 1598.49 1968.02C1584.48 1968.84 1570.58 1965.09 1558.88 1957.34L1485.61 1545.63V1544.31L1420.92 1229.58C1365.21 1214.53 1335.11 1149.44 1322.77 1113.2C1319.86 1105.18 1317.37 1097 1315.31 1088.71L1598.22 1063.1C1601.53 1071.22 1604.27 1079.56 1606.41 1088.05C1617.97 1133.4 1624.39 1179.9 1625.55 1226.67C1625.55 1270.11 1624.56 1445.56 1624.17 1515.33V1515.86C1624.15 1534.69 1627.88 1553.34 1635.12 1570.72C1644.12 1592.26 1648.31 1615.51 1647.4 1638.84Z" fill="#945959"/>
<path d="M1625.55 1226.67C1625.55 1270.11 1624.56 1445.56 1624.17 1515.33C1605.02 1530.84 1582.51 1541.65 1558.44 1546.87C1534.36 1552.1 1509.4 1551.61 1485.55 1545.44C1479.51 1544.02 1473.58 1542.22 1467.79 1540.02L1420.92 1229.58C1342.97 1212.61 1321.91 1113.27 1321.91 1113.27H1322.9L1606.74 1088.38C1618.16 1133.63 1624.47 1180.02 1625.55 1226.67Z" fill="#37474F"/>
<path d="M1389.24 425.12C1389.24 425.12 1418.41 375.282 1478.68 383.533C1538.95 391.785 1609.91 462.283 1601.39 510.272L1389.24 425.12Z" fill="#BA68C8"/>
<path opacity="0.4" d="M1389.24 425.12C1389.24 425.12 1418.41 375.282 1478.68 383.533C1538.95 391.785 1609.91 462.283 1601.39 510.272L1389.24 425.12Z" fill="white"/>
<path d="M1648.81 645.971C1677.51 577.68 1611.94 484.974 1502.35 438.905C1392.75 392.835 1280.64 410.849 1251.93 479.14C1223.23 547.43 1288.8 640.137 1398.39 686.206C1507.99 732.276 1620.1 714.262 1648.81 645.971Z" fill="#BA68C8"/>
<path d="M1573.67 744.804C1496.9 772.858 1372.27 782.759 1372.27 691.996C1372.27 688.828 1372.27 685.857 1372.27 682.821C1372.27 648.298 1370.95 624.336 1369.57 608.098C1369.57 608.098 1369.57 607.636 1369.57 607.372C1369.03 597.443 1367.68 587.575 1365.54 577.866L1363.96 559.251L1362.57 543.739L1361.78 533.705L1358.08 490.733L1356.23 468.95C1364.63 463.679 1374.25 460.698 1384.16 460.302C1388.81 459.858 1393.48 459.726 1398.15 459.906C1417.56 460.632 1444.36 466.507 1478.81 483.604C1495.7 492.021 1511.69 502.128 1526.54 513.77C1531.49 517.599 1535.98 521.427 1540.07 525.256C1574.53 556.808 1583.17 584.665 1583.17 584.665V640.377C1583.17 656.483 1606.74 684.867 1620.27 655.361C1619.94 655.229 1650.5 717.014 1573.67 744.804Z" fill="#263238"/>
<path d="M1387.26 710.017C1387.26 710.017 1351.22 704.604 1317.82 743.022C1284.41 781.439 1231.21 872.401 1231.21 872.401C1231.21 872.401 1284.68 890.619 1304.15 935.11L1376.76 808.239L1387.26 710.017Z" fill="#BA68C8"/>
<path opacity="0.6" d="M1387.26 710.017C1387.26 710.017 1351.22 704.604 1317.82 743.022C1284.41 781.439 1231.21 872.401 1231.21 872.401C1231.21 872.401 1284.68 890.619 1304.15 935.11L1376.76 808.239L1387.26 710.017Z" fill="black"/>
<path d="M1420.46 710.017L1506.27 713.119C1506.27 713.119 1570.96 723.483 1585.48 733.978L1590.5 903.293L1572.15 1000.33C1572.15 1000.33 1603.44 1060.2 1613.47 1120.33C1613.47 1120.33 1560.2 1159.94 1436.11 1159.94C1356.23 1159.94 1309.17 1120.33 1309.17 1120.33C1309.17 1120.33 1338.41 969.303 1333.59 941.513C1333.59 941.513 1296.49 918.475 1296.76 860.453C1297.02 802.43 1387.06 710.017 1387.06 710.017H1420.46Z" fill="#BA68C8"/>
<path opacity="0.4" d="M1420.46 710.017L1506.27 713.119C1506.27 713.119 1570.96 723.483 1585.48 733.978L1590.5 903.293L1572.15 1000.33C1572.15 1000.33 1603.44 1060.2 1613.47 1120.33C1613.47 1120.33 1560.2 1159.94 1436.11 1159.94C1356.23 1159.94 1309.17 1120.33 1309.17 1120.33C1309.17 1120.33 1338.41 969.303 1333.59 941.513C1333.59 941.513 1296.49 918.475 1296.76 860.453C1297.02 802.43 1387.06 710.017 1387.06 710.017H1420.46Z" fill="black"/>
<path d="M1456.9 527.962C1456.92 541.347 1452.98 554.439 1445.56 565.581C1438.15 576.724 1427.59 585.417 1415.24 590.56C1402.88 595.703 1389.28 597.065 1376.14 594.475C1363.01 591.885 1350.94 585.458 1341.47 576.007C1331.99 566.557 1325.53 554.507 1322.9 541.383C1320.27 528.259 1321.59 514.651 1326.7 502.278C1331.8 489.906 1340.47 479.327 1351.59 471.879C1362.71 464.43 1375.79 460.448 1389.17 460.435C1407.1 460.434 1424.3 467.543 1436.99 480.201C1449.69 492.859 1456.85 510.035 1456.9 527.962Z" fill="#263238"/>
<path d="M1506.54 718.334L1420.59 717.674L1420.46 599.054L1506.41 598.989L1506.54 718.334Z" fill="#945959"/>
<path d="M1420.92 703.086C1438.46 696.525 1454.48 686.481 1468.02 673.559C1481.57 660.637 1492.36 645.105 1499.74 627.901V598.989H1420.53L1420.92 703.086Z" fill="#703838"/>
<path d="M1531.29 563.344C1531.03 568.804 1530.48 574.246 1529.64 579.648C1526.77 600.354 1518.88 620.045 1506.67 637.01C1497.69 649.171 1486.49 659.519 1473.66 667.507C1457.56 677.572 1439.61 684.306 1420.86 687.31C1415.86 688.168 1410.81 688.719 1405.74 688.96C1394.38 690.009 1382.96 687.884 1372.74 682.821C1350.62 670.741 1342.24 641.565 1338.94 597.009C1335.04 543.739 1345.01 511.196 1358.74 490.601C1363.35 483.614 1369 477.38 1375.51 472.118C1382.4 466.598 1390.29 462.452 1398.74 459.906C1418.15 460.633 1444.95 466.507 1479.41 483.604C1496.09 492.056 1511.88 502.162 1526.54 513.77C1529.6 523.233 1531.33 533.074 1531.69 543.013C1531.91 549.792 1531.78 556.578 1531.29 563.344Z" fill="#945959"/>
<path d="M1539.34 564.202C1539.34 565.918 1538.75 567.634 1538.42 569.35L1529.64 579.78L1513.34 598.923C1511.16 599.362 1508.91 599.362 1506.74 598.923H1506.01C1499.87 597.536 1492.35 592.322 1492.35 573.839C1492.35 573.839 1396.57 567.238 1375.38 472.448C1377.41 467.794 1380.59 463.73 1384.62 460.633C1389.27 460.188 1393.94 460.056 1398.61 460.237C1418.02 460.963 1444.82 466.837 1479.28 483.934C1495.99 492.274 1511.82 502.269 1526.54 513.77C1531.49 517.599 1535.98 521.427 1540.07 525.256C1542.05 538.185 1541.8 551.356 1539.34 564.202Z" fill="#263238"/>
<path d="M1395.97 570.275L1396.04 616.481L1368.97 608.164L1395.97 570.275Z" fill="#703838"/>
<path d="M1436.7 575.159C1436.7 577.026 1436.15 578.851 1435.11 580.404C1434.07 581.956 1432.6 583.166 1430.87 583.88C1429.15 584.595 1427.25 584.782 1425.42 584.417C1423.59 584.053 1421.91 583.154 1420.59 581.834C1419.26 580.514 1418.37 578.832 1418 577.001C1417.64 575.17 1417.82 573.272 1418.54 571.547C1419.25 569.822 1420.46 568.348 1422.02 567.311C1423.57 566.274 1425.39 565.72 1427.26 565.72C1429.76 565.72 1432.16 566.714 1433.93 568.485C1435.7 570.255 1436.7 572.656 1436.7 575.159Z" fill="#263238"/>
<path d="M1374.72 568.624C1374.73 570.494 1374.19 572.326 1373.16 573.886C1372.13 575.447 1370.66 576.668 1368.94 577.392C1367.21 578.117 1365.31 578.313 1363.48 577.956C1361.64 577.6 1359.95 576.706 1358.63 575.388C1357.3 574.071 1356.39 572.389 1356.02 570.556C1355.65 568.723 1355.84 566.822 1356.55 565.093C1357.26 563.365 1358.47 561.887 1360.03 560.847C1361.58 559.806 1363.41 559.251 1365.28 559.251C1367.77 559.251 1370.16 560.236 1371.93 561.992C1373.7 563.748 1374.7 566.132 1374.72 568.624Z" fill="#263238"/>
<path d="M1353.86 549.086L1372.27 538.128C1372.27 538.128 1365.21 530.801 1358.15 535.224C1356.16 536.863 1354.69 539.049 1353.93 541.512C1353.16 543.976 1353.14 546.608 1353.86 549.086Z" fill="#263238"/>
<path d="M1398.41 631.73C1409.14 632.499 1419.81 629.639 1428.71 623.61C1428.71 623.61 1430.76 639.585 1417.42 642.621C1413.49 643.28 1409.44 642.555 1405.97 640.57C1402.51 638.584 1399.84 635.461 1398.41 631.73Z" fill="#703838"/>
<path d="M1505.61 602.487C1505.32 594.677 1506.76 586.899 1509.84 579.714C1511.32 575.232 1514.09 571.284 1517.8 568.362C1521.51 565.44 1525.99 563.672 1530.7 563.277C1554.86 562.617 1558.16 585.853 1557.83 594.104C1556.97 615.821 1539.41 639.321 1506.67 640.311L1505.61 602.487Z" fill="#945959"/>
<path d="M1420.92 717.674C1420.92 717.674 1395.31 771.868 1439.14 774.178C1482.97 776.489 1506.74 718.4 1506.74 718.4L1420.92 717.674Z" fill="#945959"/>
<path d="M993.642 771.802L1130.02 1145.42L1263.23 1247.14L1415.58 1178.69L1556.31 1304.04L1419.21 926.99L1286.2 814.84L1120.64 866.988L993.642 771.802Z" fill="#EBEBEB"/>
<path d="M1286.2 814.84L1415.58 1178.69L1263.23 1247.14L1120.65 866.988L1286.2 814.84Z" fill="#E0E0E0"/>
<path d="M1050.01 1012.14C1048.29 1005.48 1049.14 998.408 1052.39 992.34C1058.99 979.138 1072.19 956.299 1079.39 959.863C1089.03 964.814 1121.31 1022.44 1104.6 1055.84C1089.88 1085.35 1058.2 1042.24 1050.01 1012.14Z" fill="#945959"/>
<path d="M1594.73 966.663L1616.91 1011.48L1533.8 1092.41C1525.05 1088.42 1515.3 1087.13 1505.81 1088.71C1492.36 1090.75 1478.67 1090.75 1465.22 1088.71C1457.1 1087.33 1444.22 1096.31 1462.24 1106.6C1470.71 1112.22 1480.4 1115.73 1490.5 1116.83C1472.06 1123.36 1452.92 1127.68 1433.46 1129.71C1408.97 1131.03 1393.86 1137.43 1412.8 1159.21C1431.75 1181 1459.41 1202.45 1484.89 1196.24C1510.37 1190.04 1546.6 1174 1563.17 1159.87C1563.17 1159.87 1719.29 1070.03 1711.23 1027C1703.18 983.957 1686.55 924.482 1686.55 924.482L1594.73 966.663Z" fill="#945959"/>
<path d="M1577.43 729.754C1577.43 729.754 1528.39 768.238 1543.77 827.976C1559.15 887.715 1594.73 966.596 1594.73 966.596C1594.73 966.596 1668.99 974.782 1686.55 924.416L1637.83 785.796C1633.51 773.508 1626.54 762.32 1617.41 753.024C1608.28 743.727 1597.23 736.55 1585.02 731.998L1577.43 729.754Z" fill="#BA68C8"/>
<path opacity="0.6" d="M1577.43 729.754C1577.43 729.754 1528.39 768.238 1543.77 827.976C1559.15 887.715 1594.73 966.596 1594.73 966.596C1594.73 966.596 1668.99 974.782 1686.55 924.416L1637.83 785.796C1633.51 773.508 1626.54 762.32 1617.41 753.024C1608.28 743.727 1597.23 736.55 1585.02 731.998L1577.43 729.754Z" fill="black"/>
<path d="M1488.19 1116.64L1474.72 1079.6L1446.2 1078.35L1437.89 1106.6L1458.35 1116.83L1488.19 1116.64Z" fill="#EBEBEB"/>
<path d="M1049.95 538.854C1084.54 482.152 1106.32 416.934 1106.32 358.384C1106.9 333.137 1101.61 308.101 1090.87 285.245L1102.76 273.363L1056.55 246.96C1024.87 227.685 981.101 229.929 932.452 257.983C836.474 313.431 758.648 448.223 758.648 559.053C758.648 615.689 778.979 655.031 811.456 672.656L858.983 699.984V682.953C884.962 681.138 910.109 673.028 932.254 659.322C959.09 643.336 983.294 623.296 1004.01 599.913C1038 629.023 1099.59 562.618 1099.59 562.618C1064.47 583.081 1053.05 562.816 1049.95 538.854Z" fill="#BA68C8"/>
<path opacity="0.2" d="M1049.95 538.854C1084.54 482.152 1106.32 416.934 1106.32 358.384C1106.9 333.137 1101.61 308.101 1090.87 285.245L1102.76 273.363L1056.55 246.96C1024.87 227.685 981.101 229.929 932.452 257.983C836.474 313.431 758.648 448.223 758.648 559.053C758.648 615.689 778.979 655.031 811.456 672.656L858.983 699.984V682.953C884.962 681.138 910.109 673.028 932.254 659.322C959.09 643.336 983.294 623.296 1004.01 599.913C1038 629.023 1099.59 562.618 1099.59 562.618C1064.47 583.081 1053.05 562.816 1049.95 538.854Z" fill="black"/>
<g opacity="0.3">
<path d="M1051.27 491.789C1051.27 491.789 1032.32 601.695 1099.65 562.816C1099.65 562.816 1020.77 647.968 992.19 583.345L1051.27 491.789Z" fill="black"/>
</g>
<path d="M1101.68 556.384C1169.56 438.81 1169.56 311.728 1101.68 272.537C1033.8 233.347 923.743 296.889 855.862 414.463C787.981 532.037 787.979 659.119 855.859 698.31C923.739 737.5 1033.79 673.958 1101.68 556.384Z" fill="#BA68C8"/>
<path d="M1097.48 518.523C1097.48 518.523 1078.6 628.363 1145.93 589.55C1145.93 589.55 1066.72 674.636 1038.46 610.079L1097.48 518.523Z" fill="#BA68C8"/>
<path d="M980.771 382.345C944.069 403.468 914.365 454.956 914.365 497.268C914.365 539.58 980.771 610.739 980.771 610.739C980.771 610.739 1047.11 462.943 1047.11 420.631C1047.11 378.319 1017.41 361.156 980.771 382.345ZM980.771 491.327C965.126 500.37 952.519 493.043 952.519 475.023C953.037 465.219 955.867 455.678 960.777 447.177C965.687 438.676 972.538 431.457 980.771 426.11C996.349 417.066 1009.02 424.393 1009.02 442.414C1008.49 452.214 1005.65 461.749 1000.74 470.248C995.835 478.746 988.992 485.968 980.771 491.327Z" fill="#BA68C8"/>
<path opacity="0.5" d="M980.771 382.345C944.069 403.468 914.365 454.956 914.365 497.268C914.365 539.58 980.771 610.739 980.771 610.739C980.771 610.739 1047.11 462.943 1047.11 420.631C1047.11 378.319 1017.41 361.156 980.771 382.345ZM980.771 491.327C965.126 500.37 952.519 493.043 952.519 475.023C953.037 465.219 955.867 455.678 960.777 447.177C965.687 438.676 972.538 431.457 980.771 426.11C996.349 417.066 1009.02 424.393 1009.02 442.414C1008.49 452.214 1005.65 461.749 1000.74 470.248C995.835 478.746 988.992 485.968 980.771 491.327Z" fill="black"/>
<path d="M2272.45 1895.75V1649.14H2080.29V1897.73C2080.29 1911.99 2089.73 1926.18 2108.48 1937.33C2146.1 1959.05 2207.03 1959.05 2244.66 1937.33C2264.39 1925.85 2273.7 1910.73 2272.45 1895.75Z" fill="#263238"/>
<path d="M2244.66 1610.06C2282.22 1631.71 2282.22 1666.96 2244.66 1688.61C2207.1 1710.26 2146.11 1710.33 2108.48 1688.61C2070.85 1666.89 2070.92 1631.71 2108.48 1610.06C2146.04 1588.41 2207.03 1588.34 2244.66 1610.06Z" fill="#37474F"/>
<path d="M1859.09 227.222L2155.48 398.385V225.77L1859.09 54.6733L1778.04 94.1471L1859.09 227.222Z" fill="#BA68C8"/>
<path opacity="0.3" d="M1859.09 227.222L2155.48 398.385V225.77L1859.09 54.6733L1778.04 94.1471L1859.09 227.222Z" fill="white"/>
<path d="M1847.41 232.966L2143.79 404.129V231.513L1847.41 60.4164L1766.35 99.8901L1847.41 232.966Z" fill="#BA68C8"/>
<path opacity="0.7" d="M1847.41 232.966L2143.79 404.129V231.513L1847.41 60.4164L1766.35 99.8901L1847.41 232.966Z" fill="white"/>
<path d="M2494.11 227.222L2197.72 398.385V225.77L2494.11 54.6733L2575.17 94.1471L2494.11 227.222Z" fill="#BA68C8"/>
<path opacity="0.3" d="M2494.11 227.222L2197.72 398.385V225.77L2494.11 54.6733L2575.17 94.1471L2494.11 227.222Z" fill="white"/>
<path d="M2505.79 232.966L2209.41 404.129V231.513L2505.79 60.4164L2586.85 99.8901L2505.79 232.966Z" fill="#BA68C8"/>
<path opacity="0.5" d="M2505.79 232.966L2209.41 404.129V231.513L2505.79 60.4164L2586.85 99.8901L2505.79 232.966Z" fill="white"/>
<path d="M2293.5 232.831V225.048L2294.92 224.228V227.439L2297.82 225.775V222.563L2299.24 221.745V229.529L2297.82 230.347V227.132L2294.92 228.796V232.011L2293.5 232.831ZM2302.68 227.668C2302.17 227.962 2301.73 228.091 2301.35 228.054C2300.98 228.014 2300.69 227.827 2300.49 227.492C2300.29 227.155 2300.19 226.687 2300.19 226.089C2300.19 225.486 2300.29 224.901 2300.49 224.334C2300.69 223.764 2300.98 223.247 2301.35 222.783C2301.73 222.315 2302.17 221.934 2302.68 221.64C2303.19 221.346 2303.63 221.218 2304.01 221.258C2304.38 221.295 2304.67 221.481 2304.87 221.819C2305.07 222.154 2305.17 222.623 2305.17 223.226C2305.17 223.824 2305.07 224.408 2304.87 224.977C2304.67 225.544 2304.38 226.062 2304.01 226.53C2303.63 226.994 2303.19 227.373 2302.68 227.668ZM2302.69 226.41C2302.92 226.276 2303.11 226.088 2303.27 225.846C2303.43 225.602 2303.54 225.324 2303.62 225.013C2303.7 224.7 2303.75 224.374 2303.75 224.034C2303.75 223.695 2303.7 223.415 2303.62 223.196C2303.54 222.975 2303.43 222.833 2303.27 222.768C2303.11 222.703 2302.92 222.737 2302.69 222.871C2302.45 223.006 2302.25 223.197 2302.09 223.444C2301.94 223.689 2301.82 223.968 2301.74 224.281C2301.66 224.593 2301.62 224.918 2301.62 225.258C2301.62 225.597 2301.66 225.877 2301.74 226.098C2301.82 226.317 2301.94 226.459 2302.09 226.522C2302.25 226.582 2302.45 226.545 2302.69 226.41ZM2308.77 218.225V219.44L2305.73 221.188V219.974L2308.77 218.225ZM2306.42 218.181L2307.82 217.376V222.809C2307.82 222.958 2307.84 223.063 2307.88 223.124C2307.92 223.182 2307.97 223.207 2308.04 223.2C2308.12 223.191 2308.2 223.16 2308.29 223.106C2308.36 223.068 2308.43 223.024 2308.49 222.973C2308.56 222.92 2308.61 222.88 2308.64 222.852L2308.86 223.928C2308.79 223.994 2308.69 224.08 2308.57 224.186C2308.44 224.294 2308.29 224.404 2308.1 224.517C2307.77 224.726 2307.47 224.844 2307.22 224.872C2306.96 224.898 2306.77 224.826 2306.63 224.656C2306.49 224.486 2306.42 224.21 2306.42 223.827V218.181ZM2311.93 222.35C2311.41 222.649 2310.97 222.785 2310.59 222.757C2310.22 222.726 2309.93 222.545 2309.73 222.213C2309.53 221.879 2309.43 221.404 2309.43 220.79C2309.43 220.19 2309.53 219.606 2309.73 219.037C2309.93 218.469 2310.21 217.953 2310.58 217.489C2310.95 217.025 2311.38 216.65 2311.88 216.365C2312.21 216.173 2312.52 216.057 2312.81 216.016C2313.1 215.971 2313.35 216.009 2313.56 216.131C2313.78 216.252 2313.95 216.463 2314.07 216.766C2314.19 217.066 2314.25 217.464 2314.25 217.959V218.403L2309.99 220.855V219.854L2312.93 218.16C2312.93 217.927 2312.89 217.746 2312.8 217.617C2312.71 217.488 2312.59 217.417 2312.44 217.406C2312.28 217.39 2312.1 217.441 2311.9 217.558C2311.69 217.68 2311.5 217.846 2311.33 218.054C2311.17 218.259 2311.04 218.482 2310.95 218.725C2310.86 218.965 2310.81 219.201 2310.81 219.432V220.385C2310.81 220.673 2310.86 220.896 2310.95 221.053C2311.04 221.208 2311.18 221.294 2311.35 221.309C2311.52 221.325 2311.72 221.265 2311.96 221.13C2312.11 221.041 2312.25 220.934 2312.38 220.809C2312.51 220.684 2312.62 220.544 2312.72 220.39C2312.81 220.236 2312.88 220.072 2312.93 219.897L2314.22 219.251C2314.16 219.648 2314.02 220.039 2313.82 220.425C2313.62 220.806 2313.35 221.164 2313.03 221.497C2312.72 221.826 2312.35 222.111 2311.93 222.35ZM2316.57 211.802V219.573L2315.17 220.378V212.608L2316.57 211.802Z" fill="#455A64"/>
<path d="M1889.72 140.3V132.516L1891.14 133.336V136.548L1894.04 138.212V135.001L1895.46 135.819V143.603L1894.04 142.785V139.569L1891.14 137.905V141.12L1889.72 140.3ZM1896.61 144.264V138.426L1898.02 139.233V145.07L1896.61 144.264ZM1897.32 138.079C1897.11 137.959 1896.93 137.776 1896.78 137.53C1896.63 137.284 1896.56 137.048 1896.56 136.822C1896.56 136.599 1896.63 136.45 1896.78 136.375C1896.93 136.299 1897.11 136.321 1897.32 136.44C1897.53 136.56 1897.71 136.744 1897.85 136.991C1898 137.236 1898.08 137.47 1898.08 137.693C1898.08 137.919 1898 138.07 1897.85 138.146C1897.71 138.221 1897.53 138.198 1897.32 138.079ZM1900.55 138.74V146.523L1899.14 145.717V137.933L1900.55 138.74ZM1903.07 140.193V147.976L1901.67 147.17V139.386L1903.07 140.193ZM1908.41 146.87L1907.12 146.222C1907.1 146.083 1907.05 145.942 1906.98 145.799C1906.91 145.653 1906.81 145.516 1906.7 145.387C1906.58 145.257 1906.44 145.145 1906.28 145.052C1906.06 144.927 1905.88 144.874 1905.73 144.895C1905.58 144.913 1905.5 145.009 1905.5 145.184C1905.5 145.324 1905.55 145.469 1905.65 145.621C1905.74 145.773 1905.91 145.945 1906.15 146.139L1907.06 146.878C1907.55 147.277 1907.92 147.676 1908.16 148.073C1908.4 148.47 1908.52 148.879 1908.52 149.3C1908.52 149.683 1908.43 149.962 1908.23 150.139C1908.04 150.316 1907.77 150.389 1907.43 150.357C1907.1 150.323 1906.71 150.18 1906.27 149.928C1905.6 149.543 1905.07 149.075 1904.67 148.525C1904.27 147.973 1904.04 147.399 1903.97 146.803L1905.35 147.512C1905.4 147.772 1905.5 148.01 1905.66 148.226C1905.82 148.44 1906.02 148.619 1906.27 148.763C1906.52 148.904 1906.72 148.963 1906.87 148.94C1907.02 148.916 1907.1 148.817 1907.1 148.643C1907.1 148.495 1907.04 148.344 1906.94 148.19C1906.83 148.033 1906.67 147.866 1906.45 147.689L1905.57 146.984C1905.08 146.586 1904.71 146.177 1904.47 145.756C1904.23 145.338 1904.11 144.91 1904.11 144.474C1904.11 144.099 1904.2 143.827 1904.37 143.657C1904.55 143.488 1904.8 143.422 1905.12 143.46C1905.44 143.498 1905.82 143.642 1906.25 143.891C1906.89 144.258 1907.4 144.703 1907.76 145.225C1908.13 145.749 1908.35 146.297 1908.41 146.87Z" fill="#455A64"/>
<path d="M2195.55 1654.94C2183.39 1659.83 2169.81 1659.83 2157.66 1654.94C2153.49 1653.29 2149.92 1650.43 2147.4 1646.72C2144.88 1643.01 2143.53 1638.63 2143.53 1634.15V125.502H2209.54V1634.15C2209.56 1638.62 2208.23 1642.99 2205.74 1646.7C2203.24 1650.41 2199.69 1653.28 2195.55 1654.94Z" fill="#455A64"/>
<path d="M2227.63 96.1275C2227.63 106.219 2224.63 116.085 2219.03 124.476C2213.42 132.867 2205.45 139.407 2196.13 143.269C2186.8 147.131 2176.55 148.141 2166.65 146.173C2156.75 144.204 2147.66 139.344 2140.52 132.208C2133.39 125.072 2128.53 115.98 2126.56 106.082C2124.59 96.1841 2125.6 85.9246 2129.46 76.6009C2133.32 67.2772 2139.86 59.3081 2148.25 53.7014C2156.64 48.0946 2166.51 45.1021 2176.6 45.1021C2190.13 45.1021 2203.11 50.4779 2212.68 60.0471C2222.25 69.6162 2227.63 82.5947 2227.63 96.1275Z" fill="#37474F"/>
<path d="M2505.79 601.893L2197.72 263.99L2209.41 258.247L2505.79 429.344L2586.85 562.42L2505.79 601.893Z" fill="#BA68C8"/>
<path opacity="0.3" d="M2505.79 601.893L2197.72 263.99L2209.41 258.247L2505.79 429.344L2586.85 562.42L2505.79 601.893Z" fill="white"/>
<path d="M2494.11 607.636L2197.72 436.539V263.99L2494.11 435.087L2575.17 568.162L2494.11 607.636Z" fill="#BA68C8"/>
<path opacity="0.7" d="M2494.11 607.636L2197.72 436.539V263.99L2494.11 435.087L2575.17 568.162L2494.11 607.636Z" fill="white"/>
<path d="M1847.41 601.893L2155.48 263.99L2143.79 258.247L1847.41 429.344L1766.35 562.42L1847.41 601.893Z" fill="#BA68C8"/>
<path opacity="0.3" d="M1847.41 601.893L2155.48 263.99L2143.79 258.247L1847.41 429.344L1766.35 562.42L1847.41 601.893Z" fill="white"/>
<path d="M1859.09 607.636L2155.48 436.539V263.99L1859.09 435.087L1778.04 568.162L1859.09 607.636Z" fill="#BA68C8"/>
<path opacity="0.5" d="M1859.09 607.636L2155.48 436.539V263.99L1859.09 435.087L1778.04 568.162L1859.09 607.636Z" fill="white"/>
<path d="M1889.98 461.819V454.035L1892.68 452.482C1893.18 452.197 1893.59 452.044 1893.92 452.023C1894.26 452.002 1894.51 452.094 1894.67 452.3C1894.84 452.503 1894.92 452.799 1894.92 453.19C1894.92 453.494 1894.87 453.791 1894.76 454.082C1894.66 454.371 1894.51 454.642 1894.33 454.895C1894.15 455.144 1893.94 455.367 1893.7 455.563V455.639C1893.96 455.504 1894.2 455.449 1894.43 455.475C1894.65 455.499 1894.84 455.61 1894.98 455.808C1895.12 456.004 1895.19 456.293 1895.19 456.675C1895.19 457.088 1895.1 457.508 1894.92 457.935C1894.74 458.357 1894.48 458.762 1894.14 459.147C1893.79 459.533 1893.37 459.871 1892.86 460.162L1889.98 461.819ZM1891.41 459.653L1892.57 458.985C1892.97 458.756 1893.26 458.502 1893.44 458.223C1893.62 457.94 1893.71 457.652 1893.71 457.358C1893.71 457.143 1893.67 456.979 1893.58 456.866C1893.49 456.753 1893.36 456.698 1893.19 456.7C1893.03 456.701 1892.83 456.767 1892.6 456.898L1891.41 457.586V459.653ZM1891.41 456.472L1892.46 455.864C1892.66 455.752 1892.83 455.613 1892.99 455.447C1893.14 455.278 1893.26 455.094 1893.35 454.897C1893.44 454.698 1893.48 454.496 1893.48 454.291C1893.48 454.01 1893.4 453.833 1893.22 453.76C1893.05 453.686 1892.81 453.74 1892.49 453.922L1891.41 454.545V456.472ZM1898.4 457.096C1897.87 457.396 1897.43 457.532 1897.05 457.504C1896.68 457.473 1896.39 457.291 1896.19 456.959C1895.99 456.624 1895.88 456.149 1895.88 455.533C1895.88 454.933 1895.99 454.348 1896.19 453.778C1896.39 453.208 1896.67 452.691 1897.04 452.227C1897.41 451.762 1897.84 451.386 1898.34 451.101C1898.67 450.909 1898.98 450.792 1899.27 450.751C1899.56 450.706 1899.81 450.745 1900.03 450.867C1900.25 450.987 1900.42 451.199 1900.54 451.502C1900.66 451.803 1900.72 452.201 1900.72 452.698V453.143L1896.44 455.599V454.596L1899.4 452.899C1899.4 452.666 1899.35 452.484 1899.27 452.355C1899.18 452.226 1899.06 452.155 1898.9 452.143C1898.75 452.128 1898.57 452.179 1898.36 452.296C1898.15 452.419 1897.96 452.584 1897.8 452.793C1897.63 452.998 1897.51 453.222 1897.41 453.465C1897.32 453.705 1897.27 453.942 1897.27 454.173V455.127C1897.27 455.416 1897.32 455.639 1897.41 455.797C1897.5 455.953 1897.64 456.038 1897.81 456.054C1897.98 456.069 1898.18 456.01 1898.42 455.875C1898.57 455.785 1898.72 455.678 1898.85 455.552C1898.98 455.427 1899.09 455.287 1899.18 455.133C1899.27 454.979 1899.34 454.814 1899.39 454.639L1900.69 453.992C1900.62 454.39 1900.49 454.782 1900.28 455.168C1900.08 455.55 1899.82 455.908 1899.5 456.242C1899.18 456.572 1898.81 456.857 1898.4 457.096ZM1903.08 454.402C1902.75 454.587 1902.47 454.688 1902.21 454.704C1901.96 454.717 1901.76 454.638 1901.61 454.467C1901.47 454.292 1901.4 454.012 1901.4 453.627C1901.4 453.302 1901.45 453 1901.55 452.721C1901.66 452.441 1901.8 452.183 1901.97 451.946C1902.15 451.71 1902.35 451.492 1902.58 451.294C1902.81 451.094 1903.05 450.908 1903.3 450.736C1903.59 450.532 1903.83 450.362 1904.01 450.228C1904.19 450.092 1904.32 449.969 1904.4 449.859C1904.48 449.749 1904.52 449.631 1904.52 449.507V449.485C1904.52 449.244 1904.46 449.095 1904.33 449.039C1904.2 448.982 1904.01 449.022 1903.77 449.16C1903.52 449.305 1903.32 449.485 1903.17 449.7C1903.02 449.913 1902.92 450.129 1902.87 450.35L1901.58 450.974C1901.64 450.582 1901.77 450.201 1901.96 449.831C1902.16 449.459 1902.41 449.115 1902.71 448.801C1903.02 448.482 1903.38 448.206 1903.78 447.974C1904.06 447.813 1904.33 447.696 1904.59 447.624C1904.85 447.551 1905.08 447.537 1905.28 447.582C1905.48 447.625 1905.64 447.739 1905.75 447.923C1905.87 448.104 1905.93 448.369 1905.93 448.716V452.653L1904.6 453.418V452.609L1904.56 452.631C1904.48 452.861 1904.37 453.084 1904.23 453.302C1904.09 453.517 1903.93 453.718 1903.74 453.907C1903.55 454.093 1903.33 454.258 1903.08 454.402ZM1903.48 453.053C1903.69 452.934 1903.87 452.783 1904.03 452.598C1904.18 452.411 1904.31 452.21 1904.4 451.996C1904.49 451.783 1904.53 451.573 1904.53 451.368V450.748C1904.49 450.806 1904.43 450.872 1904.35 450.944C1904.28 451.012 1904.19 451.085 1904.1 451.162C1904 451.236 1903.91 451.309 1903.82 451.382C1903.72 451.451 1903.64 451.514 1903.56 451.571C1903.39 451.694 1903.25 451.821 1903.13 451.952C1903 452.084 1902.91 452.221 1902.84 452.364C1902.77 452.504 1902.74 452.651 1902.74 452.803C1902.74 453.023 1902.81 453.152 1902.95 453.189C1903.09 453.222 1903.26 453.177 1903.48 453.053ZM1909.3 450.827C1908.79 451.125 1908.34 451.255 1907.97 451.216C1907.59 451.173 1907.31 450.983 1907.11 450.644C1906.91 450.304 1906.81 449.839 1906.81 449.249C1906.81 448.651 1906.91 448.069 1907.11 447.503C1907.31 446.933 1907.6 446.415 1907.97 445.948C1908.34 445.479 1908.79 445.097 1909.3 444.803C1909.74 444.549 1910.13 444.42 1910.46 444.414C1910.79 444.408 1911.05 444.517 1911.24 444.74C1911.44 444.964 1911.54 445.295 1911.56 445.735L1910.24 446.496C1910.2 446.226 1910.1 446.049 1909.94 445.964C1909.79 445.875 1909.58 445.904 1909.32 446.052C1909.1 446.177 1908.91 446.354 1908.75 446.584C1908.59 446.811 1908.46 447.079 1908.37 447.389C1908.28 447.7 1908.24 448.038 1908.24 448.406C1908.24 448.778 1908.28 449.07 1908.37 449.28C1908.46 449.489 1908.59 449.616 1908.75 449.659C1908.91 449.703 1909.1 449.662 1909.32 449.537C1909.48 449.445 1909.62 449.324 1909.75 449.175C1909.88 449.024 1909.99 448.853 1910.07 448.66C1910.16 448.464 1910.21 448.256 1910.24 448.035L1911.56 447.274C1911.54 447.733 1911.44 448.186 1911.25 448.634C1911.06 449.078 1910.8 449.49 1910.47 449.87C1910.14 450.249 1909.75 450.568 1909.3 450.827ZM1913.87 444.716V448.091L1912.46 448.897V441.114L1913.83 440.33V443.306L1913.89 443.271C1914 442.861 1914.19 442.485 1914.44 442.144C1914.7 441.8 1915.01 441.517 1915.4 441.296C1915.75 441.094 1916.06 441.007 1916.32 441.034C1916.58 441.057 1916.79 441.192 1916.93 441.438C1917.08 441.68 1917.15 442.03 1917.15 442.487V446.204L1915.75 447.011V443.583C1915.75 443.222 1915.67 442.987 1915.51 442.879C1915.35 442.77 1915.13 442.798 1914.84 442.962C1914.65 443.072 1914.48 443.216 1914.33 443.394C1914.19 443.571 1914.08 443.773 1913.99 444.001C1913.91 444.225 1913.87 444.464 1913.87 444.716Z" fill="#455A64"/>
<path d="M2260.95 350.277V342.493L2263.62 344.023C2264.13 344.317 2264.57 344.681 2264.93 345.113C2265.29 345.543 2265.56 346.012 2265.75 346.518C2265.94 347.023 2266.04 347.534 2266.04 348.051C2266.04 348.568 2265.94 348.968 2265.75 349.253C2265.55 349.537 2265.27 349.684 2264.91 349.693C2264.54 349.704 2264.1 349.56 2263.58 349.263L2261.88 348.287V346.968L2263.35 347.811C2263.62 347.969 2263.85 348.045 2264.03 348.038C2264.21 348.03 2264.34 347.954 2264.43 347.809C2264.52 347.663 2264.57 347.462 2264.57 347.206C2264.57 346.948 2264.52 346.697 2264.43 346.452C2264.34 346.207 2264.21 345.979 2264.03 345.769C2263.85 345.556 2263.62 345.371 2263.34 345.212L2262.38 344.659V351.097L2260.95 350.277ZM2268.24 354.576C2267.92 354.39 2267.63 354.16 2267.38 353.886C2267.13 353.609 2266.93 353.3 2266.78 352.96C2266.64 352.618 2266.56 352.255 2266.56 351.87C2266.56 351.545 2266.61 351.303 2266.72 351.141C2266.82 350.98 2266.96 350.884 2267.14 350.852C2267.32 350.82 2267.52 350.835 2267.75 350.896C2267.97 350.959 2268.21 351.049 2268.46 351.165C2268.76 351.298 2269 351.402 2269.18 351.475C2269.36 351.545 2269.49 351.572 2269.57 351.556C2269.65 351.539 2269.69 351.469 2269.69 351.345V351.322C2269.69 351.081 2269.62 350.857 2269.49 350.649C2269.36 350.443 2269.18 350.271 2268.94 350.134C2268.69 349.988 2268.49 349.938 2268.34 349.981C2268.19 350.022 2268.09 350.125 2268.04 350.289L2266.74 349.422C2266.81 349.105 2266.94 348.873 2267.13 348.725C2267.32 348.575 2267.57 348.519 2267.88 348.555C2268.19 348.59 2268.54 348.723 2268.95 348.955C2269.23 349.117 2269.5 349.31 2269.75 349.533C2270.01 349.758 2270.24 350.008 2270.44 350.283C2270.64 350.558 2270.8 350.855 2270.92 351.173C2271.04 351.488 2271.09 351.819 2271.09 352.167V356.104L2269.76 355.339V354.529L2269.72 354.507C2269.64 354.642 2269.53 354.741 2269.4 354.802C2269.26 354.86 2269.1 354.874 2268.91 354.843C2268.71 354.809 2268.49 354.72 2268.24 354.576ZM2268.65 353.69C2268.85 353.808 2269.03 353.866 2269.19 353.863C2269.35 353.858 2269.47 353.8 2269.57 353.69C2269.66 353.579 2269.7 353.422 2269.7 353.216V352.597C2269.66 352.605 2269.6 352.6 2269.52 352.584C2269.44 352.566 2269.36 352.542 2269.27 352.51C2269.17 352.476 2269.08 352.441 2268.98 352.404C2268.89 352.365 2268.8 352.33 2268.72 352.299C2268.56 352.232 2268.42 352.193 2268.29 352.183C2268.17 352.174 2268.07 352.201 2268.01 352.266C2267.94 352.328 2267.9 352.435 2267.9 352.587C2267.9 352.808 2267.97 353.016 2268.11 353.212C2268.25 353.407 2268.43 353.566 2268.65 353.69ZM2272.18 356.73V350.892L2273.54 351.674V352.693L2273.6 352.723C2273.69 352.414 2273.84 352.229 2274.06 352.169C2274.28 352.107 2274.53 352.157 2274.81 352.32C2274.88 352.36 2274.96 352.409 2275.04 352.466C2275.12 352.522 2275.19 352.577 2275.25 352.631V354.067C2275.19 354.006 2275.1 353.934 2274.98 353.849C2274.86 353.765 2274.76 353.694 2274.66 353.639C2274.45 353.52 2274.27 353.466 2274.11 353.477C2273.95 353.486 2273.82 353.554 2273.73 353.683C2273.63 353.812 2273.59 353.996 2273.59 354.234V357.537L2272.18 356.73ZM2277.25 357.963L2277.26 356.023L2277.46 356.14L2279.08 354.856L2280.69 355.782L2278.51 357.465L2278.18 357.273L2277.25 357.963ZM2275.98 358.912V351.128L2277.38 351.935V359.719L2275.98 358.912ZM2279.14 360.73L2277.65 357.331L2278.59 356.725L2280.79 361.675L2279.14 360.73Z" fill="#455A64"/>
<path d="M524.248 21.7345L484.642 44.3759V30.3158C484.642 29.3256 484.642 28.2695 484.642 27.3454C484.642 26.4212 484.642 25.4311 484.642 24.507V24.1769C483.19 5.49619 469.064 -1.63286 451.638 8.3346C443.768 13.0907 437.015 19.4843 431.835 27.0813C427.94 1.79964 407.279 -7.3757 382.328 7.27844C367.794 16.8134 355.705 29.6314 347.036 44.698C338.368 59.7647 333.363 76.6581 332.424 94.0151V124.314C332.432 126.684 331.828 129.017 330.672 131.086C329.516 133.156 327.846 134.893 325.823 136.129L302.456 149.793C297.361 152.735 293.121 156.955 290.158 162.038C287.194 167.12 285.608 172.888 285.557 178.771C285.556 181.206 286.195 183.597 287.411 185.706C288.627 187.814 290.377 189.565 292.485 190.783C294.592 192.001 296.983 192.642 299.417 192.642C301.851 192.643 304.242 192.002 306.35 190.785L523.588 65.3669C529.376 62.0252 534.177 57.212 537.505 51.4155C540.832 45.619 542.567 39.0455 542.533 32.3621C542.519 30.2266 541.948 28.1317 540.877 26.2842C539.806 24.4367 538.271 22.9005 536.425 21.8274C534.579 20.7543 532.484 20.1813 530.349 20.165C528.213 20.1487 526.111 20.6897 524.248 21.7345Z" fill="#E0E0E0"/>
<path d="M747.625 78.107L720.297 93.6192V83.9818C720.297 83.2557 720.297 82.5956 720.297 81.8695C720.33 81.2318 720.33 80.5929 720.297 79.9552C719.307 67.1494 709.603 62.1986 697.787 69.0636C692.535 72.3838 688.037 76.7688 684.585 81.9355C681.945 64.575 667.753 58.3041 650.656 68.2055C640.528 74.6572 632.071 83.4162 625.978 93.7652C619.886 104.114 616.331 115.759 615.605 127.746V148.407C615.599 150.044 615.171 151.651 614.361 153.074C613.552 154.496 612.389 155.685 610.985 156.526L594.878 165.9C591.434 167.941 588.574 170.836 586.573 174.305C584.573 177.773 583.5 181.699 583.459 185.703C583.448 187.383 583.884 189.035 584.72 190.492C585.556 191.949 586.764 193.159 588.219 193.997C589.675 194.836 591.327 195.273 593.007 195.266C594.687 195.258 596.335 194.806 597.783 193.954L746.899 108.141C750.87 105.849 754.176 102.561 756.491 98.603C758.806 94.6445 760.05 90.1514 760.1 85.5661C760.106 84.0995 759.729 82.6568 759.008 81.3798C758.287 80.1029 757.246 79.0356 755.987 78.2831C754.728 77.5305 753.295 77.1185 751.829 77.0876C750.363 77.0567 748.914 77.408 747.625 78.107Z" fill="#E0E0E0"/>
</svg>
