<svg width="2907" height="2744" viewBox="0 0 2907 2744" fill="none" xmlns="http://www.w3.org/2000/svg">
<path d="M1631.87 981.269C1601.66 981.269 848.513 976.023 635.812 976.023C620.895 976.023 639.731 950.296 647.885 948.463C674.054 942.774 701.297 942.142 727.909 939.74C754.132 937.312 779.835 930.918 804.14 920.777C825.062 911.991 845.985 901.814 868.614 898.211C912.481 891.321 950.786 915.088 991.999 925.581C1004.48 929.195 1017.57 930.151 1030.44 928.388C1043.31 926.624 1055.67 922.179 1066.71 915.341C1085.68 903.963 1103 890.057 1122.91 880.197C1160.95 861.502 1202.43 850.854 1244.77 848.918C1287.11 846.982 1329.4 853.8 1368.98 868.945C1387.86 876.206 1405.91 885.444 1422.84 896.505C1442.94 909.652 1460.19 926.529 1480.36 939.551C1524.98 968.374 1580.1 959.019 1628.77 975.58C1631.43 976.275 1634.46 981.269 1631.87 981.269Z" fill="#EBEBEB"/>
<path d="M854.265 380.839C814.38 380.839 142.902 385.264 100.678 383.936C97.6436 383.936 96.0002 379.385 99.0343 377.615C125.646 364.468 155.923 367.123 183.419 357.767C199.727 352.331 209.715 341.649 220.966 329.449C230.34 318.837 242.422 310.971 255.921 306.694C268.239 302.976 281.318 302.562 293.847 305.493C307.5 308.717 319.131 316.491 332.278 321.422C364.579 333.621 395.931 322.054 418.939 298.161C437.902 278.502 456.865 259.919 482.149 249.363C492.772 244.572 504.272 242.036 515.925 241.917C527.577 241.797 539.128 244.096 549.847 248.667C574.435 259.792 591.375 282.232 614.51 295.759C641.943 311.814 674.686 308.021 705.027 312.825C735.367 317.629 758.565 343.166 785.114 357.894C793.781 363.426 803.785 366.507 814.064 366.806C819.982 366.3 825.869 365.477 831.699 364.341C840.865 363.204 849.524 363.456 855.719 371.105C857.173 372.938 856.857 380.839 854.265 380.839Z" fill="#EBEBEB"/>
<path d="M2121.05 695.118C2091.91 695.118 1601.66 698.405 1571.13 697.394C1568.92 697.394 1567.71 694.044 1569.93 692.969C1589.33 683.361 1611.33 685.321 1631.56 678.494C1642.37 674.18 1651.82 667.041 1658.93 657.824C1665.71 650.105 1674.44 644.343 1684.21 641.137C1693.23 638.434 1702.8 638.151 1711.96 640.315C1721.58 643.57 1730.98 647.455 1740.09 651.946C1763.6 660.859 1786.48 652.388 1803.3 634.942C1817.2 620.594 1830.79 607.067 1849.69 599.292C1857.4 595.814 1865.73 593.963 1874.18 593.855C1882.64 593.746 1891.02 595.382 1898.81 598.66C1916.76 606.751 1929.08 623.185 1945.96 633.046C1966 644.74 1990.21 641.959 2012.08 645.688C2033.95 649.418 2051.14 667.812 2070.55 678.557C2076.91 682.538 2084.22 684.722 2091.72 684.878C2096.02 684.878 2100.32 683.551 2104.37 683.045C2107.46 682.198 2110.72 682.21 2113.8 683.079C2116.89 683.947 2119.68 685.64 2121.87 687.976C2123.39 689.366 2122.95 695.118 2121.05 695.118Z" fill="#EBEBEB"/>
<path d="M1060.27 149.049C1031.13 149.049 540.871 152.272 510.34 151.324C508.128 151.324 506.927 147.974 509.139 146.9C528.545 137.292 550.605 139.188 570.769 132.425C581.555 128.067 590.997 120.937 598.139 111.755C604.904 104.009 613.641 98.2426 623.423 95.0676C632.44 92.3758 642.001 92.0708 651.172 94.1827C660.784 97.4863 670.179 101.392 679.3 105.876C702.814 114.726 725.696 106.319 742.51 88.873C756.416 74.5244 770.006 60.9343 788.906 53.2227C796.605 49.735 804.94 47.8731 813.391 47.7535C821.841 47.6338 830.226 49.259 838.02 52.5274C855.972 60.6815 868.298 77.0528 885.175 86.9135C905.212 98.6074 929.421 95.8893 951.292 99.5555C973.163 103.222 990.356 121.742 1009.76 132.488C1016.12 136.471 1023.44 138.656 1030.94 138.809C1035.18 138.413 1039.4 137.801 1043.58 136.976C1046.67 136.129 1049.93 136.141 1053.02 137.009C1056.1 137.878 1058.89 139.571 1061.09 141.906C1062.41 143.297 1062.16 149.049 1060.27 149.049Z" fill="#EBEBEB"/>
<path d="M2683.43 278.945H1851.02C1847.61 278.945 1846.41 275.405 1849.76 273.825C1879.59 259.792 1912.97 263.459 1943.81 253.724C1962.02 248.035 1973.33 236.468 1986.1 223.194C1996.74 211.625 2010.33 203.169 2025.42 198.732C2039.21 194.888 2053.77 194.735 2067.64 198.289C2082.68 202.208 2095.58 210.931 2109.86 216.873C2145.39 231.095 2180.41 219.022 2206.51 193.043C2228 171.678 2249.18 151.514 2278.07 140.389C2289.86 135.339 2302.58 132.777 2315.41 132.864C2328.25 132.951 2340.92 135.685 2352.65 140.895C2379.71 153.537 2397.91 178.821 2423.26 194.623C2453.35 213.017 2489.82 209.54 2523.26 215.609C2556.69 221.677 2584.82 236.025 2613.77 253.029C2623.24 259.422 2634.28 263.095 2645.69 263.648C2652.26 263.216 2658.8 262.435 2665.29 261.309C2675.47 260.235 2685.07 260.74 2691.71 269.337C2693.35 271.423 2703.03 278.945 2683.43 278.945Z" fill="#EBEBEB"/>
<path d="M69.0728 2720.17C919.624 2716.32 1873.71 2716.25 2724.26 2720.17C1873.71 2724.09 919.624 2724.03 69.0728 2720.17Z" fill="#263238"/>
<path d="M69.073 1353.64C919.624 1349.72 1873.71 1349.72 2724.26 1353.64C1873.71 1357.49 919.624 1357.49 69.073 1353.64Z" fill="#DBDBDB"/>
<path d="M271.66 2007.54C489.545 2003.31 731.891 2003.43 949.965 2007.54C731.828 2011.59 489.608 2011.72 271.66 2007.54Z" fill="#DBDBDB"/>
<path d="M1848.75 2137C2066.63 2132.83 2308.98 2132.95 2527.05 2137C2308.91 2141.11 2066.69 2141.23 1848.75 2137Z" fill="#DBDBDB"/>
<path d="M376.905 2330.17C594.852 2325.99 837.135 2326.06 1055.21 2330.17C837.072 2334.27 594.852 2334.4 376.905 2330.17Z" fill="#DBDBDB"/>
<path d="M79.4392 2276.25C227.224 2271.95 376.02 2271.95 523.867 2276.25C375.956 2280.48 227.224 2280.48 79.4392 2276.25Z" fill="#DBDBDB"/>
<path d="M2362.89 2068.35C2510.68 2064.12 2659.47 2064.12 2807.32 2068.35C2659.47 2072.59 2510.68 2072.59 2362.89 2068.35Z" fill="#DBDBDB"/>
<path d="M1396.48 1940.73C1880.16 1936.62 2422.82 1936.56 2906.56 1940.73C2422.82 1944.84 1880.16 1944.84 1396.48 1940.73Z" fill="#DBDBDB"/>
<path d="M16.2295 1725.12C382.846 1721.01 793.71 1720.95 1159.95 1725.12C793.331 1729.23 382.467 1729.23 16.2295 1725.12Z" fill="#DBDBDB"/>
<path d="M1549.76 1725.12C1916.38 1721.01 2327.24 1720.95 2693.86 1725.12C2327.24 1729.23 1916.38 1729.23 1550.08 1725.12H1549.76Z" fill="#DBDBDB"/>
<path d="M1681.56 1725.12H2497.97L2424.46 1276.65L2384.51 1207.31L2352.97 1076.97L2300.44 1020.21L2289.89 978.172L2218.46 887.782L2205.82 732.286L2159.61 627.168L2056.58 634.5L1993.5 627.168L1920.99 595.626L1822.2 697.583L1778.52 1160.15L1690.53 1336.19L1681.56 1725.12Z" fill="#455A64"/>
<path d="M2056.58 634.5L2111.57 845.052L2022.26 1324.31L2243.68 1481.26L2229.65 1562.55L2089.51 1725.12H2497.97L2424.46 1276.65L2384.51 1207.31L2352.97 1076.97L2300.44 1020.21L2289.89 978.172L2218.46 887.782L2205.82 732.286L2159.61 627.168L2056.58 634.5Z" fill="#37474F"/>
<path d="M1993.5 627.168L1962.02 856.303L1936.8 751.185L1993.5 627.168Z" fill="#37474F"/>
<path d="M2688.17 1072.61L2568.33 1015.84L2484.26 1335.69L2358.15 1377.34L2202.59 1610.71L2187.87 1940.73H2761.94L2688.17 1072.61Z" fill="#455A64"/>
<path d="M2440.45 1940.73L2383.75 1625.44L2356.38 1759.95L2305.94 1835.61L2282.81 1940.73H2440.45Z" fill="#37474F"/>
<path d="M2558.21 1940.73H2761.94L2688.17 1072.61L2568.33 1015.84L2666.11 1416.59L2577.11 1606.48L2589.69 1738.9L2558.21 1940.73Z" fill="#37474F"/>
<path d="M932.835 1725.12H37.468L69.9579 1274.25L138.035 1189.86L155.86 898.022L261.989 756.432L398.838 767.999L490.746 1061.1L588.405 1087.59L777.212 1488.34L851.737 1547.94L855.024 1634.04L939.472 1673.73L932.835 1725.12Z" fill="#455A64"/>
<path d="M596.306 1725.12L465.904 1481.7L308.196 1395.99L359.08 1172.48L268.437 999.221L261.989 756.432L155.86 898.022L138.035 1189.86L69.9579 1274.25L37.468 1725.12H596.306Z" fill="#37474F"/>
<path d="M490.746 1061.1L575.194 1250.73L588.405 1087.59L490.746 1061.1Z" fill="#37474F"/>
<path d="M777.212 1488.34L747.82 1547.5L777.212 1595.92L755.279 1648.07L851.737 1547.94L777.212 1488.34Z" fill="#37474F"/>
<path d="M489.165 1877.08L604.018 1821.14L650.161 1871.2L749.716 1880.56L853.507 1945.79L884.1 2007.54H430.949L489.165 1877.08Z" fill="#455A64"/>
<path d="M684.736 2007.54L729.489 1936.43L751.107 1966.77L790.929 1983.84L809.133 2007.54H684.736Z" fill="#37474F"/>
<path d="M591.818 2007.54H430.949L489.165 1877.08L604.018 1821.14L554.272 1900.02L576.837 1932.2L566.914 1962.03L591.818 2007.54Z" fill="#37474F"/>
<path d="M153.015 2572.96C132.409 2573.71 109.464 2574.85 92.3973 2561.51C76.658 2549.5 62.7519 2530.54 64.6482 2509.68C65.2803 2503.68 66.6709 2499.95 73.1183 2502.54C82.9158 2506.46 90.501 2517.27 97.3277 2524.92C105.973 2534.84 115.563 2543.9 125.962 2551.97C133.294 2557.6 141.195 2562.46 148.654 2567.9L151.435 2569.98C151.82 2570.22 152.179 2570.5 152.51 2570.81H153.142C153.306 2570.8 153.471 2570.83 153.616 2570.91C153.761 2570.99 153.881 2571.11 153.964 2571.25V2571.63C154.001 2571.78 154.005 2571.94 153.976 2572.09C153.946 2572.24 153.885 2572.38 153.795 2572.51C153.705 2572.64 153.588 2572.74 153.454 2572.82C153.319 2572.89 153.17 2572.94 153.015 2572.96Z" fill="#FFC727"/>
<path d="M154.09 2571.63C135.949 2571.31 116.164 2572.13 101.879 2559.81C95.2522 2553.91 89.5802 2547.02 85.0648 2539.39C82.9789 2535.98 76.7211 2525.8 79.3127 2521.76C84.0535 2514.49 105.608 2544.26 108.579 2547.04C119.904 2557.29 133.688 2564.43 148.591 2567.77L151.372 2569.86C140.814 2567.65 130.678 2563.77 121.347 2558.35C108.705 2550.64 101.373 2539.39 91.3226 2528.77C89.1103 2526.43 82.5364 2518.72 80.0713 2523.53C78.491 2526.69 84.5592 2536.67 85.8234 2538.76C90.1489 2545.99 95.516 2552.55 101.752 2558.23C116.164 2570.87 135.633 2570.36 153.9 2570.87L154.09 2571.63Z" fill="white"/>
<path d="M164.393 2585.53C164.393 2586.36 164.393 2587.11 163.888 2587.94C163.87 2588.04 163.826 2588.13 163.759 2588.21C163.692 2588.29 163.606 2588.35 163.508 2588.38C163.306 2588.43 163.09 2588.42 162.895 2588.34C162.701 2588.26 162.539 2588.12 162.434 2587.94C162.37 2587.77 162.37 2587.59 162.434 2587.43C162.44 2587.33 162.44 2587.22 162.434 2587.11V2586.42C158.831 2572.83 157.377 2558.61 153.521 2545.02C149.666 2531.43 145.304 2519.23 142.649 2505.89C141.006 2497.55 135.19 2455.32 153.711 2460.76C161.928 2463.03 167.554 2474.92 170.651 2482.06C174.711 2491.64 177.023 2501.88 177.478 2512.27C178.995 2537.62 169.577 2560.95 164.393 2585.53Z" fill="#FFC727"/>
<path d="M170.209 2533.2C170.616 2523.6 169.615 2514 167.238 2504.69C166.416 2501.46 162.371 2485.73 157.124 2486.36C153.774 2486.36 153.205 2493.25 152.889 2495.46C152.658 2504.93 153.895 2514.37 156.555 2523.46C160.182 2542 162.464 2560.78 163.382 2579.66C163.382 2580.79 163.003 2582.06 162.876 2583.2L162.497 2586.17C162.532 2586.5 162.532 2586.84 162.497 2587.18C162.497 2587.18 162.497 2587.75 162.497 2588C162.593 2588.19 162.754 2588.34 162.951 2588.42C163.149 2588.5 163.369 2588.51 163.572 2588.44C163.572 2587.62 163.572 2586.86 163.888 2586.1C163.888 2586.74 163.888 2587.37 163.888 2588L164.267 2586.04C164.267 2586.04 164.267 2586.04 164.267 2585.6C164.267 2585.15 164.267 2583.51 164.267 2582.5C167.252 2566.2 169.236 2549.74 170.209 2533.2ZM163.888 2575.67C163.382 2564.61 162.307 2553.61 160.727 2542.68C159.463 2533.89 157.819 2525.17 155.986 2516.51C154.777 2511.61 153.973 2506.62 153.584 2501.59C153.584 2497.74 153.964 2483.58 161.296 2492.36C166.606 2498.68 167.617 2512.34 168.502 2520.17C169.091 2528.88 168.922 2537.61 167.996 2546.28C167.175 2555.83 165.531 2565.88 163.888 2575.67Z" fill="white"/>
<path d="M175.518 2642.11H174.76C155.797 2641.16 130.513 2642.93 115.09 2630.48C103.522 2621.25 92.1444 2603.04 95.8106 2587.62C99.9824 2570.24 123.496 2591.1 129.691 2596.15C145.912 2610.25 161.338 2625.23 175.897 2641.03V2641.41C176.529 2641.85 175.897 2641.98 175.518 2642.11Z" fill="#FFC727"/>
<path d="M176.15 2641.54L172.927 2639.52C160.285 2631.68 148.401 2623.33 136.834 2614.23C133.926 2612.02 112.688 2593.12 109.464 2599.88C107.568 2603.99 114.584 2612.52 116.796 2615.12C120.857 2620.09 125.704 2624.36 131.145 2627.76C143.787 2635.6 158.894 2637.24 173.116 2641.03L175.139 2641.54C175.961 2641.98 176.529 2641.85 176.15 2641.54ZM138.856 2630.79C132.852 2628.08 127.358 2624.36 122.612 2619.79C119.451 2616.82 108.326 2605.51 111.297 2600.83C112.814 2598.37 114.141 2599.69 117.175 2601.15C118.503 2601.84 119.894 2602.66 121.158 2603.49C124.318 2605.57 127.479 2607.97 130.134 2610.31C135.317 2614.48 140.563 2618.47 145.936 2622.32C154.722 2628.64 163.698 2634.96 172.927 2640.46C161.294 2637.96 149.831 2634.73 138.604 2630.79H138.856Z" fill="white"/>
<path d="M209.904 2603.3C204.989 2624.89 193.742 2644.52 177.604 2659.68C177.556 2659.71 177.501 2659.72 177.446 2659.72C177.391 2659.72 177.336 2659.71 177.288 2659.68C177.11 2659.73 176.92 2659.72 176.748 2659.65C176.576 2659.59 176.432 2659.46 176.34 2659.3C176.269 2659.23 176.213 2659.15 176.175 2659.05C176.136 2658.96 176.117 2658.86 176.117 2658.76C176.117 2658.66 176.136 2658.56 176.175 2658.47C176.213 2658.38 176.269 2658.3 176.34 2658.23L177.288 2657.28C180.448 2631.68 183.609 2606.2 186.517 2580.54C187.085 2574.22 191.826 2535.91 203.71 2542.24C210.979 2546.09 211.484 2561.89 212.117 2568.97C213.139 2580.46 212.393 2592.04 209.904 2603.3Z" fill="#FFC727"/>
<path d="M203.078 2568.91C202.445 2566.82 201.308 2564.61 198.906 2566.07C194.355 2568.97 192.585 2587.05 191.763 2592.11C188.603 2612.78 183.672 2632.63 178.742 2652.85C178.299 2654.56 177.857 2656.27 177.478 2657.97L176.34 2659.55C176.474 2659.66 176.642 2659.72 176.814 2659.72C176.986 2659.72 177.153 2659.66 177.288 2659.55C177.288 2659.55 177.288 2659.55 177.288 2659.05L178.868 2656.96C187.007 2645.88 193.402 2633.63 197.831 2620.62C200.503 2612.39 202.346 2603.92 203.33 2595.33C204.86 2586.58 204.774 2577.63 203.078 2568.91ZM178.931 2655.89L178.173 2656.9C178.173 2656.2 178.679 2655.51 178.868 2654.81C183.719 2639.4 187.562 2623.69 190.372 2607.78C191.763 2599.76 192.585 2591.6 194.291 2583.57C194.987 2580.16 196.63 2570.49 199.411 2568.91C202.193 2567.33 202.193 2571.12 202.445 2573.33C202.572 2575.29 202.572 2577.26 202.445 2579.21C202.887 2606.61 194.657 2633.45 178.931 2655.89Z" fill="white"/>
<path d="M180.765 2714.92H176.972V2705C176.529 2691.6 175.961 2678.2 175.139 2664.8C174.696 2657.21 174.191 2649.63 173.369 2642.11C173.369 2642.11 173.369 2641.6 173.369 2641.35V2639.52C173.369 2638.88 173.369 2638.19 173.369 2637.49C171.746 2620.54 167.481 2603.95 160.727 2588.32C158.325 2583.13 155.733 2578.01 152.952 2573.02L152.13 2571.56V2571.19L151.309 2569.67C151.074 2569.3 150.863 2568.92 150.677 2568.53C141.954 2553.23 131.714 2538.57 122.485 2523.78C119.767 2519.61 117.049 2515.31 114.457 2511.14L113.952 2510.38C113.705 2510.09 113.493 2509.77 113.32 2509.43C101.436 2490.47 89.7424 2471.82 77.4165 2453.43C76.974 2452.73 78.0486 2452.1 78.5543 2452.79C86.8348 2464.99 95.4945 2477 103.838 2489.08L107.252 2493.88L113.32 2503.36C117.808 2509.68 122.169 2516 126.531 2522.64C139.199 2540.65 150.786 2559.39 161.233 2578.77L163.319 2583.2C163.761 2584.14 164.267 2585.09 164.646 2585.98L166.1 2589.2C173.753 2608.09 178.032 2628.18 178.742 2648.55C178.742 2649.95 178.742 2651.4 179.058 2652.85C179.374 2654.31 179.058 2654.18 179.058 2654.81C179.027 2655.17 179.027 2655.53 179.058 2655.89C179.028 2656.35 179.028 2656.81 179.058 2657.28V2658.29V2661.95C179.564 2675.36 179.943 2688.73 180.196 2702.09C180.449 2706.33 180.575 2710.63 180.765 2714.92Z" fill="#FFC727"/>
<path d="M68.3144 2472.45C57.948 2458.61 44.7372 2429.97 59.9707 2415.06C62.7443 2412.2 66.4728 2410.45 70.4471 2410.16C74.4213 2409.87 78.364 2411.05 81.5253 2413.48C89.5529 2419.29 93.1559 2430.29 95.7475 2439.39C102.701 2463.6 107.315 2488.38 116.038 2512.15C116.038 2512.15 116.733 2514.17 116.986 2514.68C117.239 2515.18 116.354 2515.37 116.164 2514.68L115.342 2512.34C98.9079 2500.71 80.5139 2488.89 68.3144 2472.45Z" fill="#FFC727"/>
<path d="M116.164 2512.21C116.185 2512.06 116.185 2511.92 116.164 2511.77C112.595 2505.98 109.365 2499.98 106.493 2493.82C100.76 2480.9 95.8208 2467.64 91.7019 2454.12C90.0584 2448.87 82.5997 2423.4 73.4975 2433.58C70.4105 2438.7 69.4572 2444.83 70.8426 2450.64C71.9053 2459.05 74.5887 2467.16 78.7439 2474.54C87.4996 2488.76 99.1775 2500.95 113.004 2510.31L114.837 2511.71L115.216 2512.34V2512.72C115.269 2512.77 115.333 2512.82 115.403 2512.85C115.474 2512.88 115.55 2512.89 115.627 2512.89C115.704 2512.89 115.78 2512.88 115.85 2512.85C115.921 2512.82 115.985 2512.77 116.038 2512.72L116.164 2512.21ZM112.119 2509.37C101.047 2501.18 91.2666 2491.38 83.1054 2480.29C79.0099 2474.34 75.8149 2467.83 73.6239 2460.95C72.726 2457.88 72.05 2454.76 71.6012 2451.59C71.2544 2449.23 71.1275 2446.84 71.2219 2444.45C71.2219 2439.2 73.4974 2433.51 76.5947 2432.95C79.692 2432.38 81.7147 2434.46 84.2431 2438.89C85.1022 2440.37 85.8624 2441.92 86.5187 2443.5C88.1667 2447.45 89.6016 2451.48 90.8169 2455.57C92.9661 2462.34 95.1152 2469.04 97.5172 2475.68C99.1606 2480.16 100.931 2484.65 102.827 2489.01C106.091 2496.6 109.872 2503.94 114.141 2511.01L112.119 2509.37Z" fill="white"/>
<path d="M2357.27 2572.96C2377.87 2573.71 2400.88 2574.85 2417.95 2561.51C2433.69 2549.19 2447.78 2530.79 2445.7 2509.68C2445.07 2503.68 2443.68 2499.95 2437.23 2502.54C2427.43 2506.46 2419.85 2517.27 2413.02 2524.92C2404.38 2534.82 2394.81 2543.88 2384.45 2551.97C2377.12 2557.6 2369.21 2562.46 2361.76 2567.9L2358.91 2569.98L2357.84 2570.81H2357.27C2357.1 2570.8 2356.94 2570.83 2356.79 2570.91C2356.65 2570.99 2356.53 2571.11 2356.45 2571.25V2571.63C2356.41 2571.77 2356.4 2571.92 2356.42 2572.06C2356.44 2572.21 2356.49 2572.34 2356.57 2572.47C2356.65 2572.59 2356.75 2572.7 2356.87 2572.78C2356.99 2572.87 2357.12 2572.93 2357.27 2572.96Z" fill="#FFC727"/>
<path d="M2356.07 2571.63C2374.21 2571.31 2393.99 2572.13 2408.21 2559.81C2414.86 2553.93 2420.53 2547.04 2425.03 2539.39C2427.18 2535.98 2433.44 2525.8 2430.84 2521.76C2426.1 2514.49 2404.55 2544.26 2401.58 2547.04C2390.25 2557.29 2376.47 2564.43 2361.57 2567.77L2358.72 2569.86C2369.3 2567.66 2379.46 2563.78 2388.81 2558.35C2401.45 2550.64 2408.78 2539.39 2418.83 2528.77C2421.05 2526.43 2427.56 2518.72 2430.02 2523.53C2431.67 2526.69 2425.6 2536.67 2424.33 2538.76C2420.01 2545.99 2414.64 2552.55 2408.4 2558.23C2393.99 2570.87 2374.52 2570.36 2356.26 2570.87L2356.07 2571.63Z" fill="white"/>
<path d="M2345.76 2585.53C2345.76 2586.36 2346.08 2587.11 2346.21 2587.94C2346.22 2588.04 2346.27 2588.13 2346.34 2588.21C2346.4 2588.29 2346.49 2588.35 2346.59 2588.38C2346.79 2588.43 2347 2588.42 2347.2 2588.34C2347.39 2588.26 2347.56 2588.12 2347.66 2587.94C2347.72 2587.77 2347.72 2587.59 2347.66 2587.43V2587.11V2586.42C2351.33 2572.83 2352.78 2558.61 2356.64 2545.02C2360.49 2531.43 2364.85 2519.23 2367.51 2505.89C2369.15 2497.55 2374.97 2455.32 2356.45 2460.76C2348.23 2463.03 2342.6 2474.92 2339.51 2482.06C2335.45 2491.64 2333.13 2501.88 2332.68 2512.27C2331.16 2537.62 2340.52 2560.95 2345.76 2585.53Z" fill="#FFC727"/>
<path d="M2345.83 2582.44C2345.83 2583.45 2345.83 2584.46 2345.83 2585.53C2345.83 2586.61 2345.83 2585.85 2345.83 2585.98L2346.21 2587.94C2346.21 2587.3 2346.21 2586.67 2346.21 2586.04C2346.21 2586.8 2346.21 2587.56 2346.52 2588.38C2346.73 2588.43 2346.94 2588.42 2347.14 2588.34C2347.33 2588.26 2347.49 2588.12 2347.6 2587.94C2347.6 2587.94 2347.6 2587.37 2347.6 2587.11V2586.1C2347.6 2585.15 2347.6 2584.14 2347.22 2583.13C2346.84 2582.12 2346.9 2580.73 2346.78 2579.59C2347.67 2560.72 2349.93 2541.94 2353.54 2523.4C2356.25 2514.32 2357.51 2504.87 2357.27 2495.4C2356.95 2493.18 2356.38 2486.55 2352.97 2486.29C2347.79 2485.92 2343.74 2501.4 2342.92 2504.63C2340.54 2513.93 2339.54 2523.54 2339.95 2533.13C2340.9 2549.67 2342.86 2566.14 2345.83 2582.44ZM2341.97 2546.28C2340.98 2537.61 2340.81 2528.87 2341.47 2520.17C2342.1 2512.34 2343.36 2498.75 2348.67 2492.36C2355.94 2483.58 2356.51 2497.74 2356.32 2501.59C2355.98 2506.62 2355.2 2511.62 2353.98 2516.51C2352.15 2525.17 2350.44 2533.89 2349.24 2542.68C2347.66 2553.61 2346.59 2564.61 2346.08 2575.67C2344.63 2565.88 2342.98 2555.83 2341.97 2546.28Z" fill="white"/>
<path d="M2334.64 2642.11H2335.4C2354.36 2641.16 2379.33 2642.93 2395 2630.48C2406.57 2621.25 2417.95 2603.04 2414.35 2587.62C2410.17 2570.24 2386.66 2591.1 2380.4 2596.15C2364.21 2610.26 2348.81 2625.24 2334.26 2641.03V2641.41C2333.82 2641.85 2334.2 2641.98 2334.64 2642.11Z" fill="#FFC727"/>
<path d="M2334.64 2642.11H2335.02L2337.04 2641.6C2351.26 2637.81 2366.5 2636.16 2379.01 2628.33C2384.45 2624.92 2389.3 2620.65 2393.36 2615.68C2395.57 2612.84 2402.59 2604.56 2400.63 2600.45C2397.47 2593.69 2376.23 2612.59 2373.32 2614.8C2361.69 2623.71 2349.62 2632.06 2337.23 2640.08L2334.01 2642.11C2333.82 2641.85 2334.2 2641.98 2334.64 2642.11ZM2337.23 2640.53C2346.46 2634.77 2355.44 2628.77 2364.22 2622.39C2369.59 2618.53 2374.84 2614.55 2379.96 2610.38C2382.93 2608.04 2385.84 2605.63 2389 2603.55C2390.28 2602.69 2391.61 2601.91 2392.98 2601.21C2396.02 2599.76 2397.28 2598.43 2398.86 2600.89C2401.83 2605.51 2390.71 2616.82 2387.55 2619.86C2382.78 2624.43 2377.26 2628.15 2371.24 2630.86C2360.12 2634.79 2348.76 2638.02 2337.23 2640.53Z" fill="white"/>
<path d="M2300.38 2603.3C2305.27 2624.88 2316.5 2644.51 2332.62 2659.68H2333C2333.17 2659.73 2333.36 2659.72 2333.54 2659.65C2333.71 2659.59 2333.85 2659.46 2333.94 2659.3C2334.01 2659.23 2334.07 2659.15 2334.11 2659.05C2334.15 2658.96 2334.17 2658.86 2334.17 2658.76C2334.17 2658.66 2334.15 2658.56 2334.11 2658.47C2334.07 2658.38 2334.01 2658.3 2333.94 2658.23L2333 2657.28C2329.84 2631.68 2326.67 2606.2 2323.77 2580.54C2323.13 2574.22 2318.39 2535.91 2306.57 2542.24C2299.24 2546.09 2298.8 2561.89 2298.17 2568.97C2297.11 2580.46 2297.86 2592.04 2300.38 2603.3Z" fill="#FFC727"/>
<path d="M2307.02 2595.58C2307.97 2604.18 2309.81 2612.65 2312.52 2620.87C2316.82 2633.87 2323.11 2646.13 2331.16 2657.21L2332.74 2659.3C2332.74 2659.3 2332.74 2659.68 2332.74 2659.81C2332.88 2659.91 2333.04 2659.97 2333.22 2659.97C2333.39 2659.97 2333.56 2659.91 2333.69 2659.81L2332.55 2658.23C2332.11 2656.52 2331.73 2654.81 2331.29 2653.11C2326.29 2632.88 2321.43 2613.03 2318.27 2592.36C2317.51 2587.3 2315.68 2569.23 2311.06 2566.32C2308.66 2564.86 2307.58 2567.08 2306.95 2569.16C2305.36 2577.9 2305.38 2586.85 2307.02 2595.58ZM2307.46 2579.21C2307.46 2577.7 2307.46 2574.85 2307.46 2573.33C2307.46 2571.82 2307.77 2567.39 2310.49 2568.91C2313.21 2570.43 2314.98 2580.16 2315.68 2583.57C2317.32 2591.6 2318.2 2599.76 2319.59 2607.78C2322.41 2623.69 2326.25 2639.4 2331.1 2654.81C2331.1 2655.51 2331.54 2656.2 2331.73 2656.9L2331.04 2655.89C2315.29 2633.45 2307.04 2606.62 2307.46 2579.21Z" fill="white"/>
<path d="M2329.39 2714.92H2333.19V2705C2333.65 2691.6 2334.24 2678.2 2334.96 2664.8C2335.4 2657.21 2335.97 2649.63 2336.79 2642.11C2336.79 2642.11 2336.79 2641.6 2336.79 2641.35V2639.52C2336.79 2638.88 2336.79 2638.19 2336.79 2637.49C2338.51 2620.52 2342.88 2603.93 2349.75 2588.32C2352.15 2583.13 2354.74 2578.01 2357.52 2573.02L2358.28 2571.56V2571.19L2359.1 2569.67C2359.34 2569.3 2359.55 2568.92 2359.73 2568.53C2368.46 2553.23 2378.7 2538.57 2387.86 2523.78C2390.58 2519.61 2393.3 2515.31 2395.95 2511.14L2396.46 2510.38L2397.03 2509.43C2408.91 2490.47 2420.6 2471.82 2432.93 2453.43C2433.44 2452.73 2432.3 2452.1 2431.86 2452.79C2423.51 2464.99 2414.92 2477 2406.57 2489.08C2405.37 2490.66 2404.3 2492.3 2403.1 2493.88C2400.88 2497.1 2398.61 2500.2 2396.4 2503.42C2391.91 2509.75 2387.48 2516.07 2383.18 2522.7C2370.49 2540.7 2358.9 2559.44 2348.48 2578.83C2347.79 2580.29 2347.09 2581.8 2346.33 2583.26L2345.07 2586.04L2343.61 2589.26C2335.99 2608.17 2331.72 2628.25 2330.97 2648.62C2330.97 2650.01 2330.97 2651.46 2330.97 2652.92C2330.97 2654.37 2330.97 2654.24 2330.97 2654.88C2331 2655.23 2331 2655.59 2330.97 2655.95C2331 2656.41 2331 2656.88 2330.97 2657.34V2658.35V2662.02C2330.47 2675.42 2330.09 2688.8 2329.84 2702.16C2329.71 2706.33 2329.52 2710.63 2329.39 2714.92Z" fill="#FFC727"/>
<path d="M2441.84 2472.45C2452.15 2458.61 2465.42 2429.97 2450.19 2415.06C2447.41 2412.2 2443.68 2410.45 2439.71 2410.16C2435.74 2409.87 2431.79 2411.05 2428.63 2413.48C2420.6 2419.29 2417 2430.29 2414.41 2439.39C2407.46 2463.6 2402.84 2488.38 2394.12 2512.15C2394.12 2512.15 2393.36 2514.17 2393.17 2514.68C2392.98 2515.18 2393.8 2515.37 2393.99 2514.68L2394.81 2512.34C2411.25 2500.71 2429.64 2488.89 2441.84 2472.45Z" fill="#FFC727"/>
<path d="M2393.93 2512.59C2393.98 2512.64 2394.04 2512.69 2394.1 2512.72C2394.17 2512.75 2394.24 2512.76 2394.31 2512.76C2394.38 2512.76 2394.45 2512.75 2394.52 2512.72C2394.58 2512.69 2394.64 2512.64 2394.69 2512.59V2512.21L2395.07 2511.58L2396.9 2510.19C2410.73 2500.82 2422.4 2488.63 2431.16 2474.41C2435.32 2467.03 2438 2458.92 2439.06 2450.52C2440.43 2444.69 2439.45 2438.56 2436.34 2433.45C2427.24 2423.27 2419.85 2448.75 2418.2 2453.99C2414.06 2467.52 2409.1 2480.77 2403.35 2493.69C2400.52 2499.87 2397.31 2505.86 2393.74 2511.64C2393.72 2511.79 2393.72 2511.94 2393.74 2512.08L2393.93 2512.59ZM2396.02 2511.01C2400.26 2503.93 2404.04 2496.58 2407.33 2489.01C2409.23 2484.65 2411 2480.16 2412.58 2475.68C2415.04 2469.04 2417.19 2462.34 2419.34 2455.57C2420.56 2451.48 2421.99 2447.45 2423.64 2443.5C2424.27 2441.9 2425.03 2440.36 2425.91 2438.89C2428.44 2434.46 2429.71 2432.25 2433.5 2432.95C2437.29 2433.64 2438.81 2439.27 2438.94 2444.45C2439.03 2446.84 2438.9 2449.23 2438.56 2451.59C2438.12 2454.76 2437.42 2457.89 2436.47 2460.95C2434.3 2467.82 2431.13 2474.34 2427.05 2480.29C2418.89 2491.4 2409.08 2501.2 2397.98 2509.37L2396.02 2511.01Z" fill="white"/>
<path d="M331.583 2416.07C329.055 2436.3 325.262 2456.27 321.153 2476.12C318.815 2487.43 316.413 2498.68 314.137 2510C311.609 2522.64 307.816 2535.28 311.293 2547.92C311.353 2548.51 311.353 2549.11 311.293 2549.69C311.126 2549.92 310.901 2550.09 310.644 2550.19C310.386 2550.29 310.105 2550.32 309.831 2550.28C309.557 2550.23 309.301 2550.11 309.091 2549.93C308.88 2549.75 308.724 2549.52 308.638 2549.25V2548.37C306.783 2545.07 305.32 2541.57 304.276 2537.94C300.38 2528.4 297.025 2518.65 294.226 2508.73C288.211 2488.43 284.77 2467.45 283.986 2446.28C283.586 2427.4 285.711 2408.54 290.307 2390.22C293.91 2375.61 299.03 2353.74 309.902 2342.56C319.826 2332.38 328.043 2348.88 330.951 2356.84C337.019 2375.49 333.922 2396.98 331.583 2416.07Z" fill="#FFC727"/>
<path d="M313.505 2373.28C306.173 2373.28 300.863 2397.04 298.208 2407.28C294.118 2423.47 291.996 2440.08 291.887 2456.78C291.993 2486.73 297.143 2516.46 307.121 2544.7C307.5 2545.84 307.88 2546.98 308.322 2548.11V2548.43V2549.19C308.417 2549.44 308.576 2549.67 308.783 2549.84C308.991 2550.02 309.24 2550.14 309.507 2550.19C309.774 2550.24 310.049 2550.22 310.307 2550.13C310.564 2550.05 310.795 2549.9 310.977 2549.69C310.534 2547.17 310.155 2544.76 309.839 2542.3C309.523 2539.83 309.333 2537.81 309.207 2535.6C308.176 2511.26 309.68 2486.87 313.695 2462.84C317.614 2434.72 323.24 2373.34 313.505 2373.28ZM308.196 2540.34C308.575 2543.63 309.081 2546.66 309.713 2550.07C308.954 2547.73 308.196 2545.4 307.5 2542.99C299.423 2517.88 294.766 2491.79 293.657 2465.44C292.807 2442.55 295.82 2419.68 302.57 2397.8C303.644 2394.64 308.891 2374.73 313.505 2375.74C316.729 2376.44 317.424 2394.32 317.487 2394.7C317.487 2398.31 317.487 2401.91 317.487 2405.51C317.487 2412.91 316.919 2420.3 316.286 2427.64C314.896 2443.63 312.557 2459.56 310.661 2475.49C307.305 2496.93 306.478 2518.7 308.196 2540.34Z" fill="white"/>
<path d="M447.383 2471.82C433.92 2498.18 411.164 2518.34 387.65 2535.6C375.008 2544.89 362.05 2553.55 349.282 2562.46C337.398 2569.75 326.28 2578.22 316.097 2587.75C315.643 2588.18 315.22 2588.64 314.833 2589.14C312.204 2592.04 309.894 2595.22 307.943 2598.62C307.878 2598.73 307.786 2598.82 307.676 2598.89C307.565 2598.96 307.44 2598.99 307.311 2599C307.201 2599.41 307.053 2599.81 306.868 2600.2C306.868 2600.2 306.299 2600.2 306.362 2600.2C306.426 2600.2 306.362 2599.31 306.362 2598.87C306.267 2598.72 306.216 2598.54 306.216 2598.37C306.216 2598.19 306.267 2598.01 306.362 2597.86C306.35 2597.71 306.35 2597.56 306.362 2597.42V2596.15C310.218 2565.31 331.646 2534.21 349.914 2510.5C368.182 2486.8 390.621 2465.81 418.749 2455.01C425.829 2452.29 441.884 2444.77 449.09 2450.52C456.296 2456.27 450.291 2466.26 447.383 2471.82Z" fill="#FFC727"/>
<path d="M426.524 2471.95C420.203 2465.63 401.24 2481.36 396.5 2485.03C382.416 2496.53 369.347 2509.22 357.436 2522.96C337.104 2544.25 320.253 2568.61 307.5 2595.14C307.31 2595.43 307.098 2595.71 306.868 2595.96C306.842 2596.41 306.842 2596.85 306.868 2597.29C306.835 2597.44 306.835 2597.59 306.868 2597.73C306.744 2597.87 306.675 2598.05 306.675 2598.24C306.675 2598.43 306.744 2598.61 306.868 2598.74C307.184 2598.37 307.437 2597.99 307.753 2597.67C310.155 2594.76 312.62 2591.92 315.148 2589.2L316.413 2587.81C334.769 2569.4 354.277 2552.17 374.819 2536.23C388.958 2524.84 401.994 2512.14 413.756 2498.3C416.347 2495.02 431.96 2477.32 426.524 2471.95ZM420.646 2486.29C404.717 2512.72 377.094 2532.06 353.643 2551.27C337.593 2563.92 322.777 2578.06 309.396 2593.5C321.819 2569.9 337.338 2548.07 355.54 2528.58C365.442 2517.09 375.994 2506.18 387.144 2495.9C393.082 2490.31 399.419 2485.15 406.107 2480.48C410.164 2477.65 414.533 2475.29 419.129 2473.46C428.294 2470.56 423.364 2481.49 420.646 2486.29Z" fill="white"/>
<path d="M303.644 2661.58C303.513 2661.82 303.322 2662.02 303.089 2662.16C302.857 2662.31 302.59 2662.39 302.317 2662.4V2662.84C302.359 2662.88 302.392 2662.93 302.415 2662.98C302.438 2663.04 302.45 2663.1 302.45 2663.16C302.45 2663.21 302.438 2663.27 302.415 2663.33C302.392 2663.38 302.359 2663.43 302.317 2663.47C302.276 2663.52 302.223 2663.57 302.163 2663.6C302.102 2663.63 302.036 2663.64 301.969 2663.64C301.902 2663.64 301.836 2663.63 301.776 2663.6C301.716 2663.57 301.663 2663.52 301.622 2663.47C276.338 2638.19 252.634 2607.22 240.182 2573.59C234.831 2559.42 231.821 2544.48 231.269 2529.34C231.269 2518.97 230.447 2498.11 239.297 2490.59C257.185 2475.42 273.43 2539.77 275.832 2549.5C280.257 2567.2 283.164 2585.22 287.273 2602.98C291.698 2622.45 297.576 2641.54 303.455 2660.63C303.554 2660.76 303.623 2660.92 303.655 2661.08C303.688 2661.24 303.684 2661.41 303.644 2661.58Z" fill="#FFC727"/>
<path d="M303.645 2661.58C302.696 2659.93 301.748 2658.29 300.863 2656.64C285.748 2629.63 274.896 2600.44 268.69 2570.11C266.032 2554.8 262.078 2539.74 256.869 2525.11C255.416 2521.5 250.928 2507.79 245.049 2514.74C242.015 2518.34 244.543 2544.32 245.744 2551.02C248.766 2566.3 253.627 2581.16 260.219 2595.27C271.025 2619.03 284.764 2641.35 301.116 2661.7C301.622 2662.33 302.064 2662.97 302.57 2663.53C302.659 2663.44 302.709 2663.32 302.709 2663.19C302.709 2663.06 302.659 2662.93 302.57 2662.84C302.57 2662.84 302.57 2662.84 302.57 2662.4C302.801 2662.35 303.018 2662.26 303.204 2662.11C303.39 2661.97 303.541 2661.79 303.645 2661.58ZM267.425 2606.39C260.243 2592.7 254.502 2578.29 250.296 2563.41C248.701 2557.48 247.456 2551.47 246.566 2545.4C245.801 2540.63 245.379 2535.81 245.302 2530.98C245.302 2519.23 246.377 2516.19 248.336 2515.81C250.296 2515.43 251.244 2516.82 254.657 2523.84C256.789 2528.43 258.462 2533.21 259.651 2538.13C261.484 2545.08 263.064 2552.03 264.581 2559.11C267.615 2573.08 270.459 2587.18 274.568 2600.96C280.288 2620.73 288.621 2639.65 299.346 2657.21C287.324 2641.18 276.648 2624.18 267.425 2606.39Z" fill="white"/>
<path d="M383.731 2600.07C380.783 2612.45 375.199 2624.05 367.36 2634.08C352.569 2654.56 333.606 2671.56 317.424 2690.97C315.022 2693.88 312.62 2696.78 310.345 2699.82C310.345 2700.13 308.259 2704.43 308.259 2704.05C308.259 2703.67 308.259 2702.35 309.081 2699.63C311.672 2686.1 320.142 2645.2 330.762 2624.28C337.136 2611.04 345.072 2598.6 354.402 2587.24C359.016 2582.06 369.762 2570.87 377.916 2573.27C386.07 2575.67 385.122 2593.37 383.731 2600.07Z" fill="#FFC727"/>
<path d="M370.521 2591.6C361.861 2586.17 339.548 2626.11 336.514 2631.23C325.471 2650.36 316.971 2670.84 311.23 2692.17C310.534 2694.51 309.902 2696.91 309.27 2699.37C308.638 2701.84 308.448 2703.74 308.448 2703.8C308.448 2703.86 310.345 2699.94 310.534 2699.56C310.724 2699.19 311.356 2698.49 311.735 2697.98C313.632 2695.52 315.654 2693.05 317.614 2690.72C327.285 2676.18 337.272 2661.83 346.69 2647.04C353.604 2636.49 359.63 2625.39 364.705 2613.85C365.653 2611.26 374.313 2593.75 370.521 2591.6ZM368.055 2602.79C355.413 2637.56 330.572 2664.93 311.167 2695.77L310.218 2697.23C310.218 2696.34 310.724 2695.39 311.04 2694.51C316.238 2677.06 323.052 2660.13 331.394 2643.94C336.525 2634.07 342.267 2624.53 348.587 2615.37C351.809 2610.18 355.378 2605.22 359.269 2600.51C361.039 2598.56 366.159 2593.31 367.866 2594.19C369.572 2595.08 368.877 2600.51 368.055 2602.79Z" fill="white"/>
<path d="M470.771 2313.23C445.045 2372.39 377.41 2400.01 348.144 2457.03V2457.34C347.259 2459.05 346.437 2460.82 345.616 2462.65C345.533 2462.83 345.408 2462.99 345.251 2463.1C345.095 2463.22 344.913 2463.3 344.719 2463.33C344.526 2463.36 344.329 2463.34 344.143 2463.28C343.958 2463.22 343.791 2463.11 343.656 2462.97C343.543 2462.83 343.482 2462.65 343.482 2462.46C343.482 2462.28 343.543 2462.1 343.656 2461.96C343.828 2461.52 344.04 2461.1 344.288 2460.69C350.035 2424.27 362.281 2389.18 380.444 2357.09C395.235 2329.79 415.526 2304.25 443.654 2289.9C450.544 2286.36 464.071 2278.84 471.782 2284.72C479.494 2290.6 473.932 2305.96 470.771 2313.23Z" fill="#FFC727"/>
<path d="M447.573 2315.63C444.286 2313.16 439.356 2316.13 436.512 2317.59C429.388 2321.27 422.743 2325.81 416.727 2331.11C404.561 2341.85 394.058 2354.33 385.564 2368.16C370.315 2391.38 357.98 2416.38 348.84 2442.62C346.88 2448.94 345.11 2454.63 343.72 2460.69C343.72 2461.45 343.72 2462.21 343.214 2462.91C343.325 2463.06 343.472 2463.19 343.642 2463.28C343.813 2463.37 344.002 2463.41 344.194 2463.41C344.385 2463.41 344.575 2463.37 344.745 2463.28C344.916 2463.19 345.062 2463.06 345.173 2462.91C345.932 2461.14 346.754 2459.49 347.639 2457.72C347.639 2457.72 347.639 2457.72 347.639 2457.28C352.767 2445.29 359.077 2433.83 366.475 2423.08C378.337 2407.04 391.216 2391.78 405.033 2377.38C410.406 2371.76 458.951 2324.1 447.573 2315.63ZM443.465 2329.28C434.654 2342.69 424.418 2355.11 412.934 2366.32C402.189 2378.33 391.38 2390.09 380.887 2402.23C372.513 2411.82 364.984 2422.12 358.384 2433.01C352.801 2442.04 348.062 2451.56 344.225 2461.45C346.998 2451.4 350.375 2441.52 354.339 2431.87C354.339 2431.87 354.339 2431.87 354.339 2431.55C361.707 2414.43 370.152 2397.8 379.623 2381.75C379.623 2381.75 379.623 2381.37 379.623 2381.18C387.486 2366.8 397.058 2353.43 408.13 2341.35C414.221 2334.87 421.028 2329.11 428.421 2324.16C436.891 2318.66 444.286 2315.06 446.435 2317.84C448.585 2320.62 445.803 2325.43 443.465 2329.47V2329.28Z" fill="white"/>
<path d="M380.824 2382.63C373.049 2399.32 365.653 2416.19 358.384 2433.2C354.908 2441.16 351.494 2449.13 348.081 2457.03C348.081 2457.03 348.081 2457.34 348.081 2457.47L344.352 2466.13C332.137 2491.95 322.033 2518.71 314.137 2546.15C310.639 2560.67 308.522 2575.49 307.816 2590.4C307.816 2591.92 307.816 2593.5 307.816 2595.02C307.816 2595.84 307.816 2596.72 307.816 2597.54V2598.93C307.311 2611.89 307.816 2624.98 307.816 2637.62C307.816 2655.25 309.649 2672.83 311.356 2690.27C311.296 2690.8 311.296 2691.33 311.356 2691.85V2694.19C311.325 2694.61 311.325 2695.03 311.356 2695.46V2697.67C311.925 2703.29 312.431 2708.92 312.873 2714.61H307.5C304.121 2697.4 302.008 2679.97 301.179 2662.46C301.149 2662.1 301.149 2661.74 301.179 2661.39C301.179 2659.74 301.179 2657.97 301.179 2656.33C301.179 2654.69 301.179 2652.16 301.179 2650.01C301.179 2644.95 300.863 2639.96 300.8 2634.96C299.454 2605.74 301.576 2576.46 307.121 2547.73L307.69 2545.4C307.66 2545.06 307.66 2544.72 307.69 2544.38L308.069 2542.68L308.764 2540.02C309.207 2538.44 309.649 2536.86 310.155 2535.28L310.534 2533.89C318.83 2509.31 328.777 2485.32 340.306 2462.09C342.266 2457.79 344.288 2453.55 346.248 2449.44L349.661 2442.36L354.908 2431.81C354.908 2431.81 354.908 2431.81 354.908 2431.49C363.125 2414.87 371.721 2398.37 380.192 2381.68C379.875 2381.24 381.203 2381.81 380.824 2382.63Z" fill="#FFC727"/>
<path d="M1516.2 2724.98H2351.96C2351.96 2724.98 2355.06 2623.08 2325.54 2586.36C2296.02 2549.63 2267.51 2540.47 2257.9 2532.5C2235.01 2510.37 2213.87 2486.49 2194.69 2461.07C2173.14 2432.38 2142.04 2389.27 2126.05 2385.22C2110.05 2381.18 2036.67 2365.18 2021.5 2371.57C2006.33 2377.95 1924.28 2452.35 1915.49 2455.57C1906.71 2458.8 1748.49 2538.7 1734.08 2541.79C1719.67 2544.89 1637.69 2569.04 1601.34 2591.16C1552.1 2621.5 1516.2 2724.98 1516.2 2724.98Z" fill="#DBDBDB"/>
<path opacity="0.1" d="M1516.2 2724.98H2351.96C2351.96 2724.98 2355.06 2623.08 2325.54 2586.36C2296.02 2549.63 2267.51 2540.47 2257.9 2532.5C2235.01 2510.37 2213.87 2486.49 2194.69 2461.07C2173.14 2432.38 2142.04 2389.27 2126.05 2385.22C2110.05 2381.18 2036.67 2365.18 2021.5 2371.57C2006.33 2377.95 1924.28 2452.35 1915.49 2455.57C1906.71 2458.8 1748.49 2538.7 1734.08 2541.79C1719.67 2544.89 1637.69 2569.04 1601.34 2591.16C1552.1 2621.5 1516.2 2724.98 1516.2 2724.98Z" fill="black"/>
<path d="M1762.34 2529.78C1799 2531.87 1853.36 2572.51 1864.17 2578.77C1879.97 2587.94 1975.1 2554.75 2012.65 2550.77C2050.19 2546.79 2062.08 2488.51 2059.8 2479.15C2057.53 2469.8 2100.83 2452.98 2095.45 2430.48C2092.29 2417.33 1994.63 2391.1 1994.63 2391.1C1964.67 2415.31 1921.75 2453.36 1915.49 2455.64C1909.24 2457.91 1812.15 2506.65 1762.34 2529.78Z" fill="#DBDBDB"/>
<path d="M2158.28 2532.63C2157.59 2517.14 2116.38 2490.4 2105.63 2492.87C2094.88 2495.33 2074.02 2517.52 2070.86 2526.18C2067.7 2534.84 2054.11 2576.75 2067.32 2577.06C2080.54 2577.38 2105.63 2553.36 2119.41 2552.48C2133.19 2551.59 2158.92 2545.4 2158.28 2532.63Z" fill="#DBDBDB"/>
<path d="M1848.62 2592.49C1851.21 2582.82 1812.97 2563.98 1803.04 2565.75C1793.12 2567.52 1783.51 2587.94 1792.3 2593.31C1801.08 2598.68 1813.98 2591.1 1820.68 2593.31C1827.38 2595.52 1846.6 2600.07 1848.62 2592.49Z" fill="#DBDBDB"/>
<path d="M939.472 2719.1H108.2C108.2 2719.1 147.2 2664.48 190.372 2652.79C233.545 2641.1 330.761 2606.01 348.397 2586.48C366.033 2566.95 514.133 2494.83 570.706 2496.79C627.279 2498.75 720.829 2563.09 734.483 2578.96C748.136 2594.83 795.922 2653.04 811.472 2657.91C827.022 2662.78 901.04 2674.22 939.472 2719.1Z" fill="#DBDBDB"/>
<path opacity="0.1" d="M939.472 2719.1H108.2C108.2 2719.1 147.2 2664.48 190.372 2652.79C233.545 2641.1 330.761 2606.01 348.397 2586.48C366.033 2566.95 514.133 2494.83 570.706 2496.79C627.279 2498.75 720.829 2563.09 734.483 2578.96C748.136 2594.83 795.922 2653.04 811.472 2657.91C827.022 2662.78 901.04 2674.22 939.472 2719.1Z" fill="black"/>
<path d="M271.66 2627.63C287.416 2631.02 303.531 2632.44 319.637 2631.87C326.337 2631.11 391.506 2599.12 415.463 2595.9C439.419 2592.68 569.315 2587.11 578.797 2572.83C585.94 2562.08 536.383 2528.2 503.767 2510.57C439.103 2532.12 360.597 2572.58 348.081 2586.42C339.042 2596.41 308.891 2610.57 275.832 2623.52L271.66 2627.63Z" fill="#DBDBDB"/>
<path d="M489.292 2623.84C489.292 2616.63 446.183 2611.2 436.195 2612.78C426.208 2614.36 383.478 2632.88 391.949 2636.42C405.455 2640.83 419.673 2642.66 433.857 2641.79C447.763 2640.72 489.228 2631.68 489.292 2623.84Z" fill="#DBDBDB"/>
<path d="M2400.5 2743.05H2620.16C2643.8 2743.05 2593.17 2669.92 2572.43 2659.24C2551.7 2648.55 2497.66 2654.62 2483.94 2666.38C2470.22 2678.14 2414.41 2715.56 2407.39 2721.81C2404.58 2724.51 2402.48 2727.86 2401.28 2731.57C2400.07 2735.27 2399.81 2739.22 2400.5 2743.05Z" fill="#DBDBDB"/>
<path d="M66.3548 653.21C64.7114 636.712 53.2704 620.215 33.2961 620.215C13.3218 620.215 1.6912 636.712 0.237378 653.21C-2.2278 678.494 14.9021 701.882 33.2961 722.741C51.6902 701.882 69.0728 678.494 66.3548 653.21ZM33.2961 671.541C29.7342 671.528 26.2554 670.463 23.2965 668.48C20.3376 666.497 18.0305 663.684 16.6647 660.395C15.299 657.105 14.9355 653.485 15.6199 649.989C16.3043 646.494 18.0062 643.278 20.5117 640.747C23.0173 638.215 26.2149 636.48 29.7032 635.759C33.1915 635.038 36.8149 635.364 40.1187 636.696C43.4224 638.027 46.2592 640.305 48.2729 643.243C50.2866 646.181 51.3875 649.649 51.4373 653.21C51.4795 655.613 51.0405 658 50.1462 660.231C49.2519 662.461 47.9203 664.49 46.2298 666.199C44.5393 667.907 42.5241 669.259 40.3028 670.177C38.0816 671.094 35.6993 671.558 33.2961 671.541Z" fill="#FFC727"/>
<path d="M1518.22 1162.87C1516.51 1146.37 1505.14 1129.88 1485.1 1129.88C1465.06 1129.88 1453.49 1146.37 1452.1 1162.87C1449.57 1188.15 1466.77 1211.54 1485.1 1232.4C1503.49 1211.54 1520.75 1188.41 1518.22 1162.87ZM1484.97 1181.26C1481.39 1181.25 1477.89 1180.18 1474.91 1178.18C1471.94 1176.18 1469.62 1173.34 1468.26 1170.02C1466.89 1166.71 1466.54 1163.06 1467.25 1159.55C1467.96 1156.03 1469.69 1152.8 1472.23 1150.27C1474.77 1147.74 1478 1146.02 1481.52 1145.33C1485.04 1144.63 1488.68 1144.99 1491.99 1146.37C1495.3 1147.74 1498.13 1150.07 1500.12 1153.05C1502.11 1156.03 1503.18 1159.54 1503.18 1163.12C1503.19 1165.51 1502.72 1167.88 1501.81 1170.09C1500.89 1172.3 1499.55 1174.31 1497.86 1175.99C1496.17 1177.68 1494.16 1179.01 1491.94 1179.92C1489.73 1180.82 1487.36 1181.28 1484.97 1181.26Z" fill="#FFC727"/>
<path d="M2046.02 422.937C2044.38 406.376 2033 389.941 2012.96 389.941C1992.93 389.941 1981.36 406.376 1979.97 422.937C1977.44 448.221 1994.63 471.545 2012.96 492.468C2031.36 471.545 2048.61 448.41 2046.02 422.937ZM2012.96 441.268C2009.39 441.255 2005.91 440.186 2002.94 438.195C1999.98 436.203 1997.67 433.379 1996.31 430.079C1994.95 426.778 1994.6 423.148 1995.3 419.647C1996 416.147 1997.72 412.931 2000.24 410.407C2002.77 407.882 2005.98 406.162 2009.49 405.462C2012.99 404.763 2016.62 405.115 2019.92 406.476C2023.22 407.836 2026.04 410.144 2028.03 413.107C2030.02 416.07 2031.09 419.556 2031.11 423.126C2031.11 425.511 2030.65 427.874 2029.74 430.079C2028.83 432.283 2027.5 434.287 2025.81 435.973C2024.12 437.659 2022.12 438.995 2019.92 439.904C2017.71 440.812 2015.35 441.276 2012.96 441.268Z" fill="#FFC727"/>
<path d="M643.587 950.296C641.88 933.735 630.502 917.301 610.465 917.301C590.427 917.301 578.86 933.735 577.469 950.296C574.941 975.58 592.134 998.905 610.465 1019.83C628.859 998.905 646.115 975.58 643.587 950.296ZM614.131 968.311C610.314 969.091 606.346 968.621 602.816 966.971C599.287 965.32 596.382 962.577 594.533 959.148C592.683 955.718 591.987 951.784 592.547 947.928C593.108 944.072 594.895 940.499 597.644 937.738C600.393 934.976 603.958 933.173 607.811 932.596C611.665 932.018 615.602 932.697 619.04 934.531C622.477 936.365 625.233 939.258 626.899 942.78C628.565 946.303 629.053 950.268 628.29 954.089C627.599 957.593 625.885 960.814 623.365 963.345C620.845 965.876 617.632 967.604 614.131 968.311Z" fill="#FFC727"/>
<path d="M2792.72 884.242C2791.01 867.681 2779.64 851.247 2759.6 851.247C2739.56 851.247 2727.99 867.681 2726.6 884.242C2724.07 909.526 2741.27 932.85 2759.6 953.773C2777.99 932.85 2795.25 909.716 2792.72 884.242ZM2759.6 902.573C2756.03 902.548 2752.55 901.467 2749.59 899.465C2746.63 897.463 2744.34 894.631 2742.99 891.326C2741.64 888.02 2741.3 884.39 2742.01 880.891C2742.72 877.393 2744.45 874.183 2746.99 871.668C2749.52 869.152 2752.74 867.443 2756.24 866.756C2759.75 866.068 2763.38 866.434 2766.67 867.805C2769.97 869.177 2772.78 871.495 2774.76 874.465C2776.75 877.435 2777.8 880.925 2777.8 884.495C2777.82 886.884 2777.36 889.253 2776.45 891.463C2775.54 893.672 2774.2 895.677 2772.5 897.361C2770.81 899.045 2768.79 900.373 2766.58 901.268C2764.36 902.163 2761.99 902.607 2759.6 902.573Z" fill="#FFC727"/>
<path d="M33.9913 715.661H21.3494V721.982H33.9913V715.661Z" fill="#FFC727"/>
<path d="M1592.43 1265.52H1586.11V1259.2H1592.43C1598.45 1259.21 1604.45 1258.7 1610.38 1257.69L1611.46 1264.01C1605.17 1265.05 1598.8 1265.56 1592.43 1265.52ZM1560.82 1265.52H1535.54V1259.2H1560.82V1265.52ZM1510.26 1265.52H1484.97V1259.2H1510.26V1265.52ZM1459.69 1265.52H1434.4V1259.2H1459.69V1265.52ZM1409.12 1265.52H1383.84V1259.2H1409.12V1265.52ZM1358.55 1265.52C1349.9 1265.56 1341.27 1264.61 1332.83 1262.68L1334.28 1256.36C1342.07 1258.18 1350.05 1259.1 1358.05 1259.08L1358.55 1265.52ZM1635.73 1256.55L1633.26 1250.73C1640.75 1247.52 1647.83 1243.45 1654.37 1238.6L1658.17 1243.65C1651.4 1248.78 1644.06 1253.11 1636.3 1256.55H1635.73ZM1309.06 1253.7C1301.33 1249.84 1294.07 1245.09 1287.44 1239.54L1291.49 1234.68C1297.76 1239.91 1304.61 1244.41 1311.9 1248.08L1309.06 1253.7ZM1677.57 1225.7L1672.71 1221.66C1677.96 1215.41 1682.48 1208.58 1686.17 1201.3L1691.8 1204.15C1687.94 1211.94 1683.17 1219.24 1677.57 1225.89V1225.7ZM1269.62 1220.77C1264.43 1213.87 1260.08 1206.38 1256.66 1198.46L1262.41 1195.93C1265.69 1203.39 1269.8 1210.45 1274.67 1216.98L1269.62 1220.77ZM1700.64 1179.81L1694.32 1178.36C1696.17 1170.44 1697.11 1162.34 1697.1 1154.21H1703.43C1703.5 1162.89 1702.57 1171.54 1700.64 1180V1179.81ZM1249.2 1173.49C1248.06 1167.09 1247.49 1160.59 1247.49 1154.08C1247.49 1152.06 1247.49 1150.04 1247.49 1148.08L1253.81 1147.7C1253.81 1149.85 1253.81 1151.94 1253.81 1154.02C1253.83 1160.17 1254.36 1166.3 1255.39 1172.35L1249.2 1173.49ZM1703.62 1128.8H1697.29V1103.52H1703.62V1128.8ZM1243.13 1124.06C1240.78 1116.24 1237.53 1108.71 1233.46 1101.62L1238.9 1098.46C1243.26 1105.95 1246.71 1113.93 1249.2 1122.23L1243.13 1124.06ZM1218.86 1082.09C1213.16 1076.18 1206.79 1070.94 1199.9 1066.48L1203.31 1061.17C1210.56 1065.9 1217.23 1071.48 1223.16 1077.79L1218.86 1082.09ZM1703.62 1078.42H1697.29V1053.14H1703.62V1078.42ZM1178.28 1055.54C1170.62 1052.77 1162.66 1050.91 1154.57 1049.98L1155.27 1043.66C1163.9 1044.59 1172.39 1046.56 1180.55 1049.54L1178.28 1055.54ZM1129.73 1049.22H1104.45V1042.9H1129.73V1049.22ZM1079.17 1049.22H1053.88V1042.9H1079.17V1049.22ZM1028.6 1049.22H1003.31V1042.9H1028.6V1049.22ZM978.03 1049.22H952.746V1042.9H978.03V1049.22ZM927.462 1049.22H902.178V1042.9H927.462V1049.22ZM876.894 1049.22H851.61V1042.9H876.894V1049.22ZM826.326 1049.22H801.042V1042.9H826.326V1049.22ZM775.759 1049.22H750.475V1042.9H775.759V1049.22ZM725.191 1049.22H699.907V1042.9H725.191V1049.22ZM674.623 1049.22H649.339V1042.9H674.623V1049.22ZM624.055 1049.22C615.498 1048.82 607.014 1047.44 598.771 1045.11L600.478 1038.79C608.325 1041.02 616.409 1042.31 624.561 1042.65L624.055 1049.22ZM574.625 1035.19C567.088 1030.96 560.066 1025.87 553.702 1020.02L558.001 1015.34C563.99 1020.88 570.609 1025.69 577.722 1029.69L574.625 1035.19ZM1701.97 1028.04H1695.65V1002.76H1701.97V1028.04ZM538.469 1000.86C533.618 993.688 529.629 985.965 526.585 977.856L532.464 975.643C535.387 983.271 539.161 990.544 543.715 997.324L538.469 1000.86ZM1703.62 978.109H1697.29V952.825H1703.62V978.109ZM2728.18 964.645H2702.9V958.324H2728.18V964.645ZM2677.62 964.645H2652.33V958.324H2677.62V964.645ZM2627.05 964.645H2601.76V958.324H2627.05V964.645ZM2576.48 964.645H2551.2V958.324H2576.48V964.645ZM2525.91 964.645H2500.63V958.324H2525.91V964.645ZM2475.34 964.645H2450.06V958.324H2475.34V964.645ZM2424.78 964.645C2416.2 964.136 2407.71 962.608 2399.49 960.094L2401.33 953.773C2409.11 956.173 2417.15 957.637 2425.28 958.134L2424.78 964.645ZM519.443 953.014C518.861 948.338 518.565 943.631 518.558 938.918V927.478H524.879V938.918C524.886 943.358 525.182 947.792 525.764 952.193L519.443 953.014ZM2375.66 949.727C2368.2 945.355 2361.26 940.137 2354.99 934.178L2359.35 929.627C2365.25 935.255 2371.78 940.177 2378.82 944.291L2375.66 949.727ZM1703.62 927.541H1697.29V902.257H1703.62V927.541ZM2339.38 913.887C2334.65 906.634 2330.79 898.847 2327.88 890.689L2333.82 888.604C2336.57 896.283 2340.2 903.621 2344.63 910.474L2339.38 913.887ZM525.764 901.878H519.443V876.594H525.764V901.878ZM1703.62 877.163H1697.29V851.879H1703.62V877.163ZM2322.12 865.469C2321.69 861.459 2321.48 857.429 2321.49 853.396V839.932H2327.81V853.396C2327.81 857.195 2328 860.993 2328.38 864.773L2322.12 865.469ZM517.863 852.068C516.603 843.924 514.701 835.892 512.174 828.049L518.495 826.089C521.098 834.354 523.063 842.807 524.373 851.373L517.863 852.068ZM1703.74 826.784H1697.42V801.5H1703.74V826.784ZM2327.94 814.774H2321.62V789.491H2327.94V814.774ZM502.755 805.293C499.012 797.965 494.656 790.966 489.734 784.371L494.854 780.578C499.923 787.485 504.446 794.776 508.381 802.385L502.755 805.293ZM1703.74 776.406H1697.42V751.122H1703.74V776.406ZM473.616 765.724C467.721 759.984 461.38 754.721 454.653 749.984L458.319 744.801C465.315 749.752 471.909 755.247 478.04 761.236L473.616 765.724ZM2327.94 764.396H2321.62V739.112H2327.94V764.396ZM433.288 737.406C425.916 733.8 418.263 730.798 410.406 728.43L412.239 722.109C420.435 724.6 428.424 727.728 436.132 731.464L433.288 737.406ZM1703.8 726.028H1697.48V700.744H1703.8V726.028ZM386.449 723.247C379.802 722.414 373.111 721.992 366.412 721.982H361.671V715.662H366.159C373.112 715.659 380.058 716.102 386.955 716.989L386.449 723.247ZM336.514 721.982H311.23V715.662H336.514V721.982ZM285.946 721.982H260.662V715.662H285.946V721.982ZM235.378 721.982H210.094V715.662H235.378V721.982ZM184.81 721.982H159.526V715.662H184.81V721.982ZM134.242 721.982H108.958V715.662H134.242V721.982ZM83.6743 721.982H58.3904V715.662H83.6743V721.982ZM2327.12 714.018H2320.8V688.734H2327.12V714.018ZM1702.98 675.713H1696.66C1696.88 667.225 1697.79 658.769 1699.38 650.429L1705.7 651.567C1704.38 659.549 1703.71 667.623 1703.68 675.713H1702.98ZM2319.97 663.956C2319.12 655.775 2317.6 647.678 2315.42 639.746L2321.74 638.04C2323.97 646.332 2325.53 654.786 2326.42 663.324L2319.97 663.956ZM1712.15 627.421L1706.21 625.271C1709.18 617.218 1712.79 609.418 1717.02 601.947L1722.51 605.044C1718.72 612.245 1715.49 619.726 1712.84 627.421H1712.15ZM2307.08 616.548C2303.6 609.09 2299.57 601.905 2295.01 595.057L2300.25 591.517C2305.05 598.651 2309.28 606.154 2312.89 613.957L2307.08 616.548ZM1736.36 584.944L1731.43 580.961C1736.79 574.279 1742.69 568.043 1749.06 562.314L1753.3 567.055C1747.41 572.479 1741.98 578.377 1737.05 584.691L1736.36 584.944ZM2279.65 576.094C2274 570.085 2267.87 564.546 2261.32 559.533L2265.17 554.54C2271.94 559.752 2278.29 565.501 2284.13 571.733L2279.65 576.094ZM1773.59 552.074L1770.18 546.765C1777.4 542.144 1784.99 538.127 1792.87 534.755L1795.33 540.57C1787.78 543.799 1780.51 547.646 1773.59 552.074ZM2241.34 546.133C2234.07 542.254 2226.5 538.957 2218.71 536.272L2220.73 530.33C2228.87 533.075 2236.75 536.501 2244.31 540.57L2241.34 546.133ZM1818.72 532.669L1817.2 526.348C1825.5 524.282 1833.96 522.908 1842.49 522.239L1842.99 528.56C1834.81 529.207 1826.7 530.496 1818.72 532.416V532.669ZM2194.82 530.267C2186.71 528.927 2178.51 528.251 2170.29 528.244V521.923C2178.87 521.909 2187.44 522.628 2195.89 524.073L2194.82 530.267ZM2145.07 528.244H2119.79V521.923H2145.07V528.244ZM2094.5 528.244H2069.22V521.923H2094.5V528.244ZM2043.94 528.244H2018.65V521.923H2043.94V528.244ZM1993.37 528.244H1968.09V521.923H1993.37V528.244ZM1942.8 528.244H1917.52V521.923H1942.8V528.244ZM1892.23 528.244H1866.95V521.923H1892.23V528.244Z" fill="#FFC727"/>
<path d="M2767.06 958.198H2754.42V964.518H2767.06V958.198Z" fill="#FFC727"/>
<path d="M1395.72 1023.75C1391.86 1030.07 1010.14 1094.22 991.177 1091.19C990.27 1091.02 989.382 1090.77 988.523 1090.43C964.629 1082.59 848.323 999.347 839.474 992.268C817.667 974.758 880.75 825.204 903.379 799.035C918.486 781.589 949.269 771.729 949.269 771.729C949.269 771.729 1006.79 504.477 1054.96 444.112C1067.09 428.942 1304.32 394.619 1349.2 408.778C1368.16 415.099 1418.16 454.668 1420.37 462.633C1423.22 474.39 1399.58 1017.3 1395.72 1023.75Z" fill="#37474F"/>
<path d="M1395.72 1023.75C1391.86 1030.07 1010.14 1094.22 991.178 1091.19C990.271 1091.02 989.382 1090.77 988.523 1090.43C1013.11 986.579 1128.91 499.105 1133.46 495.502C1138.01 491.899 1365.44 465.477 1420.37 462.696C1423.22 474.39 1399.58 1017.3 1395.72 1023.75Z" fill="#455A64"/>
<path d="M1429.28 383.241C1427.58 417.943 1415.57 445.882 1401.41 448.6V448.916L1079.73 477.234L1086.06 343.609L1400.08 315.986C1401.63 315.372 1403.29 315.092 1404.95 315.164C1405.52 315.099 1406.09 315.099 1406.66 315.164H1407.79C1421.32 319.715 1430.8 348.665 1429.28 383.241Z" fill="#FFC727"/>
<path opacity="0.1" d="M1429.28 383.241C1427.58 417.943 1415.57 445.882 1401.41 448.6V448.916L1079.73 477.234L1086.06 343.609L1400.08 315.986C1401.63 315.372 1403.29 315.092 1404.95 315.164C1405.52 315.099 1406.09 315.099 1406.66 315.164H1407.79C1421.32 319.715 1430.8 348.665 1429.28 383.241Z" fill="black"/>
<path d="M1110.38 411.725C1112.08 374.794 1101.13 344.29 1085.92 343.592C1070.72 342.893 1057.02 372.265 1055.32 409.196C1053.62 446.126 1064.57 476.631 1079.78 477.329C1094.98 478.027 1108.68 448.655 1110.38 411.725Z" fill="#FFC727"/>
<path d="M877.21 958.45C877.21 958.45 882.077 984.556 900.282 993.026C912.653 998.21 926.137 1000.17 939.472 998.715L976.007 859.654L1044.27 710.415C1044.27 710.415 1013.81 685.51 1006.35 684.815C993.09 685.428 979.879 686.8 966.778 688.924C966.778 688.924 934.541 830.64 932.772 834.306C931.002 837.973 877.21 958.45 877.21 958.45Z" fill="#EBEBEB"/>
<path d="M966.652 688.924C969.433 698.152 992.568 709.72 999.963 711.806C1012.41 713.195 1024.94 713.659 1037.45 713.196L1030.68 740.377L1044.4 710.415C1044.4 710.415 1013.17 684.689 1006.47 684.815C999.774 684.942 966.652 688.924 966.652 688.924Z" fill="#DBDBDB"/>
<path d="M906.982 812.12C918.865 823.301 931.54 833.61 944.908 842.966C960.331 852.764 1021.33 859.78 1021.33 859.78L971.582 1052.82C971.582 1052.82 921.646 1040.88 887.007 1017.8C865.895 1003.71 844.025 972.989 844.025 972.989C844.025 972.989 859.258 909.779 867.16 889.804C875.061 869.83 906.982 812.12 906.982 812.12Z" fill="#455A64"/>
<path d="M1771.19 1778.34L1479.16 1784.67C1479.16 1784.67 1482.44 1636.82 1480.04 1623.42C1477.01 1606.35 1180.24 961.864 1180.24 961.864H1457.22C1457.22 961.864 1749.7 1496.3 1758.1 1568.68C1767.84 1651.93 1771.19 1778.34 1771.19 1778.34Z" fill="#F7A9A0"/>
<path d="M1430.04 1594.09C1430.04 1594.09 1739.01 1507.49 1744.2 1503.57C1749.38 1499.65 1457.22 961.421 1457.22 961.421H1180.24L1430.04 1594.09Z" fill="#37474F"/>
<path d="M1442.05 1526.96C1525.05 1499.08 1609.24 1474.37 1694.26 1453.51C1694.47 1453.44 1694.7 1453.46 1694.89 1453.56C1695.09 1453.66 1695.24 1453.84 1695.3 1454.05C1695.37 1454.26 1695.35 1454.48 1695.25 1454.68C1695.15 1454.87 1694.98 1455.02 1694.77 1455.09C1611.83 1483.22 1527.58 1507.62 1442.62 1528.79C1442.5 1528.83 1442.38 1528.84 1442.25 1528.83C1442.12 1528.82 1442 1528.78 1441.89 1528.72C1441.78 1528.67 1441.68 1528.59 1441.6 1528.49C1441.52 1528.39 1441.46 1528.28 1441.42 1528.16C1441.38 1528.04 1441.37 1527.91 1441.38 1527.79C1441.39 1527.66 1441.43 1527.54 1441.49 1527.43C1441.55 1527.32 1441.63 1527.22 1441.72 1527.14C1441.82 1527.06 1441.93 1527 1442.05 1526.96Z" fill="#263238"/>
<path d="M1412.22 961.484L1392.37 1498.64L1180.24 961.358L1412.22 961.484Z" fill="#263238"/>
<path d="M1948.87 2559.3C1932.81 2563.92 1481.12 2545.46 1464.05 2534.02C1459.44 2530.86 1458.74 2401.28 1459.69 2326.56C1459.3 2315.52 1462.07 2304.6 1467.67 2295.07C1473.26 2285.54 1481.46 2277.81 1491.29 2272.77C1544.9 2249.19 1670.62 2244.14 1725.17 2280.74C1739.08 2290.03 1752.29 2341.99 1752.29 2341.99L1748.81 2394.96C1748.81 2394.96 1918.72 2479.47 1935.72 2494.13C1952.73 2508.8 1964.86 2554.69 1948.87 2559.3Z" fill="#C7C7C7"/>
<path d="M1950.2 2560C1934.14 2564.61 1479.6 2546.03 1462.72 2534.4C1454.88 2529.02 1454.82 2432.19 1456.91 2330.04L1752.6 2341.29L1749.06 2394.58C1749.06 2394.58 1919.73 2479.53 1937.05 2494.26C1954.37 2508.99 1966.32 2555.32 1950.2 2560Z" fill="#FFC727"/>
<path d="M1944.44 2541.54C1868.34 2536.86 1560.82 2523.59 1484.97 2524.22C1484.34 2524.22 1484.34 2524.6 1484.97 2524.66C1560.32 2531.3 1867.83 2541.73 1944.13 2542.49C1946.03 2542.8 1946.02 2541.6 1944.44 2541.54Z" fill="#263238"/>
<path d="M1760.5 2378.08C1730.73 2371.25 1693.88 2374.35 1670.11 2394.77C1669.17 2395.59 1670.11 2396.85 1671.32 2396.6C1700.34 2388.51 1730.16 2383.57 1760.25 2381.87C1760.75 2381.91 1761.25 2381.74 1761.63 2381.41C1762.01 2381.07 1762.24 2380.6 1762.27 2380.1C1762.31 2379.6 1762.14 2379.1 1761.81 2378.72C1761.48 2378.34 1761.01 2378.11 1760.5 2378.08Z" fill="#263238"/>
<path d="M1781.62 2391.99C1751.84 2385.16 1714.99 2388.26 1691.23 2408.67C1690.28 2409.49 1691.23 2410.76 1692.43 2410.51C1721.46 2402.44 1751.28 2397.51 1781.36 2395.78C1781.87 2395.81 1782.36 2395.64 1782.74 2395.31C1783.12 2394.98 1783.35 2394.51 1783.39 2394.01C1783.42 2393.51 1783.25 2393.01 1782.92 2392.63C1782.59 2392.25 1782.12 2392.02 1781.62 2391.99Z" fill="#263238"/>
<path d="M1802.73 2405.89C1772.96 2399.06 1736.11 2402.23 1712.34 2422.64C1711.39 2423.4 1712.34 2424.73 1713.54 2424.48C1742.57 2416.36 1772.38 2411.4 1802.48 2409.68C1802.98 2409.72 1803.47 2409.55 1803.85 2409.22C1804.23 2408.89 1804.46 2408.42 1804.5 2407.91C1804.53 2407.41 1804.36 2406.92 1804.03 2406.54C1803.7 2406.16 1803.23 2405.93 1802.73 2405.89Z" fill="#263238"/>
<path d="M1823.84 2419.86C1794.07 2413.03 1757.22 2416.13 1733.45 2436.55C1732.5 2437.37 1733.45 2438.63 1734.65 2438.38C1763.69 2430.32 1793.5 2425.38 1823.59 2423.65C1824.09 2423.69 1824.59 2423.52 1824.97 2423.19C1825.35 2422.86 1825.58 2422.39 1825.61 2421.88C1825.64 2421.38 1825.48 2420.88 1825.14 2420.51C1824.81 2420.13 1824.34 2419.89 1823.84 2419.86Z" fill="#263238"/>
<path d="M1818.72 2311.01C1807.59 2294.26 1785.35 2300.71 1772.45 2311.01C1750.53 2328.59 1733.63 2351.63 1723.46 2377.83C1723.46 2378.4 1723.46 2378.77 1724.09 2378.9C1724.09 2381.18 1726.05 2383.71 1728.65 2382.82C1753.93 2374.67 1781.68 2369.1 1803.55 2353.43C1816.32 2344.01 1829.21 2326.82 1818.72 2311.01ZM1764.23 2362.34C1751.97 2366.7 1739.58 2370.37 1727.44 2374.98C1737.05 2362.02 1746.03 2348.62 1756.9 2336.61C1762.07 2330.76 1767.63 2325.24 1773.52 2320.12C1782.75 2312.34 1818.78 2296.54 1812.15 2329.22C1808.48 2347.23 1778.83 2357.22 1764.23 2362.34Z" fill="#263238"/>
<path d="M1647.55 2366.51C1671.82 2378.08 1700.26 2378.71 1726.43 2382.31C1729.15 2382.69 1730.61 2379.91 1730.23 2377.64C1730.34 2377.6 1730.45 2377.53 1730.54 2377.45C1730.62 2377.36 1730.69 2377.26 1730.73 2377.14C1730.78 2377.03 1730.79 2376.9 1730.78 2376.78C1730.77 2376.66 1730.73 2376.54 1730.67 2376.44C1716.02 2352.55 1695.36 2332.94 1670.75 2319.55C1656.27 2311.96 1633.2 2309.56 1625.23 2327.95C1617.71 2345.08 1633.39 2359.87 1647.55 2366.51ZM1634.91 2344.58C1622.64 2313.61 1660.89 2322.83 1671.31 2328.84C1677.92 2332.89 1684.26 2337.36 1690.28 2342.24C1702.73 2352.49 1714.65 2363.38 1725.99 2374.86C1713.35 2372.26 1700.39 2370.81 1687.56 2368.53C1672.58 2366.2 1641.67 2361.71 1634.91 2344.58Z" fill="#263238"/>
<path d="M1575.36 2259.2L1636.63 2261.65L1652.21 1871.9L1590.95 1869.45L1575.36 2259.2Z" fill="#DBDBDB"/>
<path d="M1672.58 1952.05C1675.87 1954.32 1655.2 1991.17 1647.3 1994.71C1639.39 1998.25 1601.15 2000.46 1586.17 1994.08C1578.97 1990.98 1562.91 1953.12 1563.1 1950.28C1563.29 1947.43 1643.82 1932.2 1672.58 1952.05Z" fill="#C7C7C7"/>
<path d="M1550.14 2265.06C1546.86 2262.72 1568.09 2226.19 1576.25 2222.77C1584.4 2219.36 1622.45 2217.65 1637.37 2224.29C1644.51 2227.45 1660.06 2265.57 1659.81 2268.54C1659.56 2271.51 1578.59 2285.16 1550.14 2265.06Z" fill="#C7C7C7"/>
<path d="M1774.79 1746.74C1790.84 1742.95 1780.48 1887.07 1763.92 1906.85C1741.92 1933.15 1679.28 1957.86 1614.87 1958.62C1559.24 1959.25 1502.23 1928.03 1480.86 1909.25C1459.5 1890.48 1469.55 1736.75 1476.88 1739.91C1508.61 1753.88 1572.71 1794.4 1774.79 1746.74Z" fill="#A6A6A6"/>
<path d="M1491.86 2727.82C1475.93 2733.07 1009.76 2729.72 992.505 2718.59C986.184 2714.48 1003.88 2272.46 1003.88 2272.46L1295.6 2273.85L1285.8 2569.6C1285.8 2569.6 1458.93 2648.62 1476.57 2662.84C1494.2 2677.06 1507.73 2722.7 1491.86 2727.82Z" fill="#F7A9A0"/>
<path d="M1491.86 2727.82C1476 2733 1009.76 2729.72 992.505 2718.65C988.902 2716.32 992.505 2582.06 996.803 2461.39L1289.21 2466L1285.8 2569.61C1285.8 2569.61 1458.93 2648.55 1476.57 2662.84C1494.2 2677.12 1507.79 2722.64 1491.86 2727.82Z" fill="#EBEBEB"/>
<path d="M1492.75 2727.88C1476.76 2733 1009.76 2729.84 992.568 2718.59C984.604 2713.41 994.148 2613.22 993.516 2511.07L1289.4 2514.49L1287.32 2567.84C1287.32 2567.84 1460.32 2648.24 1477.83 2662.65C1495.34 2677.06 1508.68 2722.83 1492.75 2727.88Z" fill="#FFC727"/>
<path d="M1486.49 2709.61C1410.26 2706.64 1102.55 2701.84 1026.95 2704.68C1026.32 2704.68 1026.32 2705.13 1026.95 2705.13C1102.43 2709.74 1410.2 2712.08 1486.43 2710.82C1488.07 2710.82 1488.07 2709.68 1486.49 2709.61Z" fill="#263238"/>
<path d="M1298.31 2551.08C1268.35 2544.76 1231.63 2549.12 1208.37 2570.05C1207.48 2570.81 1208.37 2572.07 1209.63 2571.82C1238.44 2562.98 1268.1 2557.24 1298.12 2554.69C1298.51 2554.58 1298.86 2554.36 1299.11 2554.05C1299.36 2553.74 1299.51 2553.36 1299.53 2552.95C1299.55 2552.55 1299.44 2552.16 1299.23 2551.82C1299.01 2551.49 1298.69 2551.23 1298.31 2551.08Z" fill="#263238"/>
<path d="M1319.74 2564.42C1289.84 2558.42 1253.06 2562.46 1229.86 2583.38C1228.91 2584.21 1229.86 2585.47 1231.06 2585.15C1259.86 2576.32 1289.53 2570.6 1319.55 2568.09C1319.96 2568 1320.34 2567.79 1320.61 2567.47C1320.88 2567.15 1321.04 2566.75 1321.07 2566.33C1321.09 2565.91 1320.97 2565.49 1320.73 2565.15C1320.49 2564.8 1320.14 2564.55 1319.74 2564.42Z" fill="#263238"/>
<path d="M1341.23 2577.76C1311.27 2571.44 1274.55 2575.8 1251.29 2596.72C1250.4 2597.54 1251.6 2598.81 1252.55 2598.56C1281.35 2589.69 1311.02 2583.95 1341.04 2581.43C1341.46 2581.34 1341.83 2581.12 1342.1 2580.8C1342.37 2580.49 1342.54 2580.09 1342.56 2579.67C1342.58 2579.25 1342.46 2578.83 1342.22 2578.49C1341.98 2578.14 1341.63 2577.89 1341.23 2577.76Z" fill="#263238"/>
<path d="M1362.66 2591.16C1332.76 2584.84 1295.98 2589.2 1272.78 2610.12C1271.89 2610.94 1272.78 2612.21 1274.04 2611.89C1302.84 2603.05 1332.51 2597.33 1362.54 2594.83C1362.94 2594.73 1363.31 2594.51 1363.58 2594.19C1363.85 2593.86 1364 2593.46 1364.01 2593.04C1364.03 2592.62 1363.9 2592.21 1363.66 2591.87C1363.41 2591.53 1363.06 2591.28 1362.66 2591.16Z" fill="#263238"/>
<path d="M1354.7 2482.44C1343.13 2466.07 1321.07 2473.02 1308.43 2483.39C1286.98 2501.54 1270.7 2525.02 1261.21 2551.46C1261.16 2551.58 1261.13 2551.71 1261.14 2551.83C1261.15 2551.96 1261.19 2552.08 1261.26 2552.19C1261.33 2552.3 1261.43 2552.39 1261.54 2552.45C1261.65 2552.51 1261.78 2552.54 1261.91 2552.54C1261.91 2554.81 1263.99 2557.28 1266.52 2556.33C1291.49 2547.54 1319.17 2541.22 1340.66 2524.73C1353.18 2515.56 1365.63 2497.99 1354.7 2482.44ZM1301.6 2535.28C1289.46 2539.9 1277.14 2543.94 1265.19 2549C1273.97 2535.46 1283.47 2522.4 1293.64 2509.87C1298.6 2503.85 1303.98 2498.19 1309.75 2492.93C1318.79 2484.9 1354.38 2468.15 1348.63 2500.96C1345.47 2519.1 1316.08 2529.72 1301.66 2535.28H1301.6Z" fill="#263238"/>
<path d="M1185.04 2542.49C1209.63 2553.42 1238.07 2553.3 1264.31 2556.2C1264.89 2556.23 1265.48 2556.12 1266.01 2555.87C1266.54 2555.62 1267.01 2555.25 1267.37 2554.78C1267.73 2554.32 1267.97 2553.78 1268.08 2553.2C1268.18 2552.62 1268.15 2552.03 1267.97 2551.46C1268.48 2551.46 1268.79 2550.77 1268.42 2550.2C1253.15 2526.62 1231.96 2507.47 1206.98 2494.64C1192.31 2487.5 1169.05 2485.66 1161.72 2504.31C1154.57 2521.88 1170.69 2536.17 1185.04 2542.49ZM1171.83 2520.93C1158.75 2490.28 1197.11 2498.49 1207.86 2504.25C1214.66 2508 1221.18 2512.23 1227.39 2516.89C1240.12 2526.79 1252.34 2537.34 1263.99 2548.49C1251.35 2546.28 1238.33 2545.14 1225.43 2543.37C1210.07 2541.54 1179.04 2537.81 1171.83 2520.93Z" fill="#263238"/>
<path d="M1442.94 961.358C1442.94 961.358 1436.62 1090.75 1406.66 1195.74C1404.25 1204.46 1401.6 1213 1398.75 1221.02C1371 1232.33 1344.32 1246.12 1319.05 1262.24C1319.05 1262.24 1306.4 1769.05 1307.23 1800.47C1310.2 1918.17 1288.26 2491.73 1288.26 2491.73L995.602 2493.18C995.602 2493.18 1016.59 1844.59 1016.08 1801.48C1015.32 1731.95 1066.65 961.295 1066.65 961.295L1442.94 961.358Z" fill="#F7A9A0"/>
<path d="M1442.94 961.358C1442.94 961.358 1436.62 1090.75 1406.66 1195.74C1404.25 1204.46 1401.66 1213 1398.82 1221.02C1371.02 1232.32 1344.3 1246.12 1318.98 1262.24C1318.98 1262.24 1324.8 1649.14 1323.79 1694.47C1323.79 1694.47 1021.27 1690.74 997.814 1684.6C1004.96 1568.99 1019.24 1419.12 1036.44 1248.46C1036.44 1248.46 1021.2 1219.7 1020.76 1167.99C1020.32 1113.88 1037.07 1019.13 1066.65 961.421L1442.94 961.358Z" fill="#37474F"/>
<path d="M1277.64 1280.82C1290.29 1271.78 1303.81 1264.2 1317.21 1256.36C1330.61 1248.52 1344.71 1240.75 1359 1233.86C1387.07 1220.97 1415.98 1209.99 1445.53 1200.99C1446.29 1200.99 1446.79 1202 1446.04 1202.31C1417.84 1214.96 1390.54 1229.24 1362.54 1242.2C1348.44 1248.52 1334.22 1254.84 1320.06 1261.16C1305.9 1267.48 1292.18 1274.94 1277.96 1281.07C1277.58 1281.52 1277.27 1281.01 1277.64 1280.82Z" fill="#263238"/>
<path d="M1351.16 1136.2C1351.16 1122.23 1352.11 1108.32 1352.55 1094.41C1353.75 1061.61 1354.51 1028.55 1357.1 995.807C1357.1 995.539 1357.21 995.282 1357.4 995.092C1357.58 994.903 1357.84 994.796 1358.11 994.796C1358.38 994.796 1358.64 994.903 1358.83 995.092C1359.02 995.282 1359.12 995.539 1359.12 995.807C1359.94 1021.09 1359.12 1046.69 1359.12 1072.1C1359.12 1084.74 1359.12 1097.39 1358.68 1110.03C1358.05 1122.13 1358.05 1134.27 1358.68 1146.37C1359.5 1155.54 1361.78 1173.3 1373.72 1174.25C1385.67 1175.2 1393.44 1164.7 1396.1 1155.73C1402.18 1132.61 1405.84 1108.93 1407.03 1085.06C1408.24 1071.15 1409.31 1012.62 1408.36 998.525C1408.36 997.64 1409.69 997.64 1409.75 998.525C1410.76 1012.87 1412.91 1027.1 1413.61 1041.51C1414.3 1055.92 1414.56 1070.14 1413.61 1084.43C1412.66 1098.71 1411.97 1111.92 1410.07 1125.58C1408.87 1138.02 1406.09 1150.25 1401.79 1161.99C1400.15 1166.99 1397.31 1171.51 1393.52 1175.15C1389.73 1178.8 1385.1 1181.46 1380.04 1182.91C1378.71 1183.18 1377.36 1183.33 1376 1183.35C1376 1186.32 1375.56 1189.29 1375.43 1192.2C1375.43 1196.81 1374.67 1201.37 1374.1 1205.98C1373.5 1210.48 1372.62 1214.93 1371.45 1219.32C1370.54 1223.72 1369.03 1227.97 1366.96 1231.96C1366.88 1232.08 1366.76 1232.17 1366.62 1232.22C1366.48 1232.26 1366.33 1232.27 1366.19 1232.23C1366.05 1232.18 1365.93 1232.1 1365.84 1231.98C1365.75 1231.87 1365.7 1231.73 1365.7 1231.58C1365.52 1227.18 1365.81 1222.77 1366.58 1218.43C1367.15 1214.01 1367.72 1209.46 1368.54 1205.03C1369.36 1200.61 1370.12 1196.31 1370.94 1191.95C1371.51 1189.04 1371.89 1186.01 1372.4 1183.03C1368.86 1182.46 1365.53 1181 1362.71 1178.79C1359.89 1176.58 1357.68 1173.69 1356.28 1170.39C1352 1159.53 1350.25 1147.84 1351.16 1136.2Z" fill="#263238"/>
<path d="M1032.01 1619.25C1119.56 1618.55 1207.23 1621.14 1294.58 1627.72C1294.76 1627.76 1294.91 1627.87 1295.01 1628.01C1295.12 1628.15 1295.18 1628.33 1295.18 1628.51C1295.18 1628.68 1295.12 1628.86 1295.01 1629C1294.91 1629.14 1294.76 1629.25 1294.58 1629.3C1206.98 1630.37 1119.3 1627.46 1031.95 1621.21C1031.73 1621.14 1031.54 1621.01 1031.41 1620.83C1031.28 1620.65 1031.21 1620.43 1031.22 1620.2C1031.22 1619.98 1031.31 1619.76 1031.45 1619.59C1031.59 1619.41 1031.79 1619.29 1032.01 1619.25Z" fill="#263238"/>
<path d="M1083.46 1133.6C1103.25 1135.7 1123.18 1135.93 1143.01 1134.3C1161.78 1132.11 1179.59 1124.83 1194.52 1113.25C1227.01 1087.27 1240.79 1045.43 1249.14 1006.17C1249.14 1005.99 1249.21 1005.81 1249.34 1005.68C1249.47 1005.55 1249.65 1005.48 1249.83 1005.48C1250.02 1005.48 1250.19 1005.55 1250.32 1005.68C1250.45 1005.81 1250.53 1005.99 1250.53 1006.17C1247.3 1040.12 1240.48 1075.33 1218.92 1102.88C1209.7 1115.04 1197.94 1125.05 1184.47 1132.21C1170.11 1139.07 1154.37 1142.55 1138.46 1142.39C1119.79 1142.47 1101.19 1140.22 1083.08 1135.69C1082.89 1135.57 1082.74 1135.39 1082.64 1135.19C1082.55 1134.98 1082.52 1134.74 1082.56 1134.52C1082.6 1134.29 1082.71 1134.09 1082.87 1133.92C1083.03 1133.76 1083.24 1133.65 1083.46 1133.6Z" fill="#263238"/>
<path d="M1561.27 2730.22L1552.48 2689.07L1511.65 1766.71L1538.76 1644.91L1513.1 1160.34L1510.07 777.733L1565.12 762.247L1584.02 771.349L1565.12 1160.34L1589.46 1644.91L1560.95 1781.44L1561.27 2730.22Z" fill="#FFC727"/>
<path opacity="0.4" d="M1561.27 2730.22L1552.48 2689.07L1511.65 1766.71L1538.76 1644.91L1513.1 1160.34L1510.07 777.733L1565.12 762.247L1584.02 771.349L1565.12 1160.34L1589.46 1644.91L1560.95 1781.44L1561.27 2730.22Z" fill="black"/>
<path d="M1326.95 577.358C1479.66 609.469 1760.76 583.047 1766.32 511.494C1770.18 461.874 1736.48 303.597 1644.01 223.573C1630.36 211.69 1510.26 359.158 1527.83 377.299C1545.88 398.212 1559.99 422.218 1569.48 448.158C1572.33 457.576 1412.72 484.124 1349.51 499.737C1232.58 528.497 1284.6 568.256 1326.95 577.358Z" fill="#F7A9A0"/>
<path d="M1480.04 613.704L1457.48 457.26C1457.48 457.26 1348.5 475.401 1288.64 504.478C1228.78 533.554 1253.31 565.349 1315.76 582.858C1378.21 600.367 1480.04 613.704 1480.04 613.704Z" fill="#FFC727"/>
<path opacity="0.1" d="M1463.8 611.428C1413.96 604.6 1364.54 595.041 1315.76 582.794C1253.31 565.285 1228.72 533.554 1288.64 504.414L1292.31 502.644L1463.8 611.428Z" fill="black"/>
<path d="M1424.42 468.827C1427.05 513.591 1432.69 558.128 1441.29 602.137H1442.43C1439.97 565.538 1429.79 493.037 1425.93 468.827C1425.87 468.195 1424.35 468.385 1424.42 468.827Z" fill="#263238"/>
<path d="M1342.43 541.898H1342.06C1342.62 564.084 1342.43 615.537 1307.8 611.429C1293.89 609.659 1281.44 600.43 1271.13 591.454C1260.58 582.187 1251.06 571.802 1242.75 560.481C1233.46 547.839 1225.18 534.186 1216.71 521.102C1216.39 520.533 1215.57 521.102 1215.89 521.671C1222.56 535.985 1230.3 549.782 1239.02 562.947C1247.62 575.686 1257.88 587.209 1269.55 597.206C1280.68 606.435 1293.89 615.664 1308.68 616.801C1315.12 617.353 1321.56 615.659 1326.89 612.007C1332.22 608.355 1336.13 602.969 1337.95 596.764C1343.55 579.046 1345.08 560.291 1342.43 541.898Z" fill="#263238"/>
<path d="M1057.74 1063.38C1058.88 1064.52 1476.57 1019.51 1480.48 1014.45C1485.92 1007.25 1366.71 582.162 1329.73 512.379C1313.99 482.67 1238.39 478.372 1208.56 506.5C1133.78 576.79 1081.76 804.155 1070.82 872.359C1052.62 984.682 1053.57 1059.21 1057.74 1063.38Z" fill="white"/>
<path d="M1321.58 499.674L1424.04 1087.15L1502.92 1046.56C1502.92 1046.56 1372.08 613.957 1363.86 583.995C1355.65 554.034 1337.5 510.925 1321.58 499.674Z" fill="#FFC727"/>
<path d="M1233.14 487.6C1238.33 485.388 1242.88 719.391 1243.45 757.949C1244.02 796.507 1247.81 1100.86 1247.81 1100.86L1016.84 1070.9C1016.84 1070.9 1057.74 799.983 1131.06 634.753C1172.4 541.139 1194.9 503.529 1233.14 487.6Z" fill="#FFC727"/>
<path d="M1315.76 572.112C1290.48 573.629 1250.91 525.653 1239.91 493.037C1239.15 490.761 1246.23 469.712 1253.18 443.796C1257.42 428.057 1261.78 410.358 1264.62 393.987L1363.17 436.78C1353.75 456.272 1346.74 476.841 1342.31 498.03C1341.94 500.287 1341.8 502.572 1341.87 504.857C1341.87 504.857 1341.87 505.552 1341.87 505.995C1341.55 519.142 1340.03 570.658 1315.76 572.112Z" fill="#F7A9A0"/>
<path d="M1341.68 504.857C1341.71 505.214 1341.71 505.574 1341.68 505.931C1338.09 505.844 1334.51 505.442 1330.99 504.73C1271.77 493.1 1270.31 417.88 1271.2 396.894L1295.79 407.577L1363.04 436.78C1353.59 456.26 1346.59 476.832 1342.18 498.03C1341.83 500.289 1341.66 502.571 1341.68 504.857Z" fill="#263238"/>
<path d="M1231.63 304.166C1227.96 343.482 1269.55 446.388 1300.65 464.782C1345.91 491.52 1409.12 481.975 1429.03 430.08C1448.37 379.512 1391.86 246.771 1358.05 231.032C1307.98 208.023 1237.13 246.076 1231.63 304.166Z" fill="#F7A9A0"/>
<path opacity="0.2" d="M1245.53 372.811C1259.69 412.57 1282.01 453.846 1300.72 464.782C1345.91 491.519 1409.06 481.975 1429.03 430.08C1436.11 411.559 1433.01 381.787 1424.42 350.814C1424.42 352.331 1425.18 376.098 1412.66 381.534C1409.01 383.033 1404.99 383.358 1401.15 382.463C1397.31 381.568 1393.84 379.498 1391.23 376.541H1382.07C1371.54 388.213 1357.11 395.632 1341.49 397.4C1330.59 399.202 1319.42 398.615 1308.77 395.679C1298.12 392.743 1288.23 387.529 1279.79 380.397C1268.48 369.714 1267.66 364.721 1267.66 364.721L1245.53 372.811Z" fill="#263238"/>
<path d="M1347.81 346.832C1347.81 346.832 1347.43 347.401 1347.81 347.654C1350.78 354.544 1353.05 362.887 1347.81 367.691C1347.81 367.691 1347.81 368.197 1347.81 368.071C1354.89 363.899 1351.73 352.837 1347.81 346.832Z" fill="#263238"/>
<path d="M1338.77 342.091C1327.26 345.631 1335.29 368.387 1345.91 365.1C1356.53 361.813 1348.38 339.057 1338.77 342.091Z" fill="#263238"/>
<path d="M1388.32 332.484C1388.32 332.484 1388.96 332.484 1389.08 332.926C1391.3 340.069 1395.09 347.844 1402.29 347.907C1402.29 347.907 1402.67 348.286 1402.29 348.349C1394.27 349.803 1389.27 339.626 1388.32 332.484Z" fill="#263238"/>
<path d="M1391.99 322.939C1402.99 318.072 1411.97 340.511 1401.73 344.999C1391.49 349.487 1382.76 326.984 1391.99 322.939Z" fill="#263238"/>
<path d="M1326.13 334.822C1328.91 332.926 1331.18 330.777 1333.84 328.501C1336.73 326.634 1338.95 323.886 1340.16 320.663C1340.38 319.552 1340.21 318.399 1339.7 317.39C1339.18 316.382 1338.34 315.576 1337.31 315.101C1335.13 314.414 1332.8 314.334 1330.57 314.868C1328.35 315.403 1326.31 316.532 1324.67 318.135C1320.89 320.772 1318.24 324.748 1317.28 329.26C1316.95 330.394 1317 331.604 1317.42 332.708C1317.84 333.812 1318.6 334.749 1319.6 335.377C1320.6 336.006 1321.78 336.291 1322.96 336.191C1324.13 336.091 1325.25 335.611 1326.13 334.822Z" fill="#263238"/>
<path d="M1398.75 313.394C1395.91 315.164 1393 316.365 1389.97 317.882C1387.09 319.91 1383.62 320.932 1380.11 320.79C1379.01 320.525 1378.03 319.904 1377.32 319.023C1376.61 318.143 1376.21 317.053 1376.19 315.923C1376.42 313.668 1377.25 311.516 1378.59 309.692C1379.94 307.868 1381.75 306.44 1383.84 305.556C1387.81 303.202 1392.52 302.413 1397.05 303.344C1398.12 303.579 1399.09 304.128 1399.85 304.921C1400.6 305.714 1401.1 306.714 1401.29 307.794C1401.47 308.874 1401.33 309.983 1400.88 310.981C1400.43 311.979 1399.69 312.819 1398.75 313.394Z" fill="#263238"/>
<path d="M1367.28 413.771C1369.44 415.28 1372.04 416.015 1374.67 415.857C1377.29 414.88 1379.66 413.349 1381.62 411.369C1381.62 411.369 1382.13 411.369 1382.07 411.369C1381.56 413.116 1380.58 414.691 1379.25 415.927C1377.91 417.163 1376.26 418.012 1374.48 418.386C1372.91 418.527 1371.34 418.192 1369.96 417.426C1368.59 416.659 1367.48 415.496 1366.77 414.087C1366.52 413.961 1366.96 413.645 1367.28 413.771Z" fill="#263238"/>
<path d="M1367.28 390.068C1370.04 392.24 1373.23 393.812 1376.64 394.682C1380.04 395.553 1383.59 395.704 1387.06 395.124C1390.1 394.638 1393.05 393.745 1395.85 392.47L1397.43 391.648L1398.88 390.889C1399.22 390.674 1399.49 390.356 1399.63 389.981C1399.78 389.606 1399.81 389.193 1399.7 388.804V388.108V387.539C1397.93 382.04 1394.46 373.949 1394.46 373.949C1396.79 373.949 1408.55 375.277 1407.1 372.495C1397.87 348.175 1386.16 324.874 1372.14 302.965C1372.04 302.844 1371.9 302.762 1371.75 302.732C1371.59 302.702 1371.43 302.726 1371.29 302.8C1371.15 302.873 1371.04 302.992 1370.98 303.137C1370.91 303.282 1370.9 303.444 1370.94 303.597C1379.35 326.036 1391.67 346.832 1400.52 369.272C1396.31 368.828 1392.04 369.02 1387.88 369.841C1387.19 370.283 1394.77 385.264 1395.4 387.792C1391.12 389.807 1386.46 390.935 1381.73 391.108C1376.99 391.282 1372.27 390.498 1367.84 388.804C1367.02 388.993 1366.64 389.688 1367.28 390.068Z" fill="#263238"/>
<path d="M1392.37 392.47C1390.49 397.177 1387.42 401.316 1383.46 404.48C1381.26 406.155 1378.58 407.085 1375.81 407.134C1369.49 407.134 1368.16 402.078 1367.97 397.4C1367.88 394.897 1368.09 392.393 1368.6 389.941C1376.06 393.289 1384.38 394.174 1392.37 392.47Z" fill="#263238"/>
<path d="M1383.46 404.48C1381.25 406.155 1378.58 407.085 1375.81 407.134C1369.49 407.134 1368.16 402.078 1367.97 397.4C1370.97 396.674 1374.13 396.978 1376.94 398.261C1379.75 399.545 1382.04 401.735 1383.46 404.48Z" fill="#FF98B9"/>
<path d="M1257.92 388.424C1284.15 381.471 1287.13 346.327 1272.71 323.824C1272.71 323.824 1343.95 309.602 1328.53 253.787C1336.56 259.432 1345.75 263.203 1355.44 264.822C1365.12 266.441 1375.04 265.867 1384.47 263.142L1395.66 280.778C1401.98 276.353 1402.61 253.977 1380.23 244.179C1372.15 229.676 1359.21 218.486 1343.7 212.575C1336.81 209.681 1329.25 208.781 1321.87 209.976C1314.49 211.172 1307.6 214.416 1301.98 219.338C1294.82 216.595 1287.14 215.435 1279.49 215.938C1271.83 216.441 1264.37 218.595 1257.63 222.253C1250.89 225.91 1245.01 230.984 1240.42 237.126C1235.82 243.267 1232.6 250.331 1231 257.833C1231 257.833 1202.23 276.796 1204.7 302.649C1204.98 309.655 1206.68 316.531 1209.69 322.865C1212.7 329.198 1216.96 334.857 1222.21 339.5C1222.21 339.5 1216.96 351.826 1228.53 371.105C1235.55 383.241 1250.08 390.51 1257.92 388.424Z" fill="#263238"/>
<path d="M1325.37 249.426C1327.39 253.694 1328.96 258.165 1330.05 262.763C1331.26 267.237 1331.92 271.844 1332 276.48C1332.31 285.761 1329.06 294.808 1322.9 301.764C1316.54 308.468 1308.68 313.56 1299.96 316.618C1295.53 318.009 1291.11 319.715 1286.56 320.853C1282.01 321.991 1277.33 322.876 1272.71 324.077C1277.45 323.634 1282.13 323.002 1286.87 322.433C1291.61 321.864 1296.16 320.158 1300.84 319.083C1310.16 316.162 1318.61 310.97 1325.43 303.976C1331.94 296.424 1335.21 286.614 1334.53 276.669C1333.82 266.961 1330.67 257.59 1325.37 249.426Z" fill="#263238"/>
<path d="M1371.19 269.021C1362.87 269.077 1354.6 267.709 1346.73 264.976C1342.89 263.608 1339.25 261.715 1335.92 259.35C1332.64 256.897 1329.63 254.099 1326.95 251.006C1328.71 254.911 1331.25 258.416 1334.41 261.309C1337.73 264.34 1341.65 266.644 1345.91 268.073C1349.96 269.592 1354.23 270.425 1358.55 270.538C1362.82 270.748 1367.1 270.236 1371.19 269.021Z" fill="#263238"/>
<path d="M1272.4 386.591C1272.4 386.591 1240.79 357.641 1226.82 369.714C1212.85 381.787 1242.56 427.678 1262.47 430.332C1265 430.87 1267.61 430.886 1270.14 430.38C1272.67 429.873 1275.08 428.855 1277.2 427.387C1279.32 425.919 1281.13 424.033 1282.5 421.844C1283.87 419.655 1284.78 417.209 1285.17 414.656L1272.4 386.591Z" fill="#F7A9A0"/>
<path d="M1235.61 382.672C1235.29 382.672 1235.61 383.115 1235.61 383.178C1249.64 385.453 1259.12 395.82 1266.65 407.134C1265.61 406.016 1264.35 405.137 1262.94 404.558C1261.53 403.978 1260.01 403.712 1258.49 403.778C1256.97 403.844 1255.48 404.241 1254.12 404.941C1252.77 405.64 1251.59 406.626 1250.65 407.83C1250.34 407.83 1250.65 408.588 1251.16 408.399C1253.26 407.184 1255.69 406.648 1258.11 406.863C1260.53 407.078 1262.83 408.033 1264.69 409.6C1267.77 412.228 1270.56 415.173 1273.03 418.386C1273.85 419.46 1275.81 418.386 1275.05 417.122C1271.51 400.371 1253.56 380.333 1235.61 382.672Z" fill="#263238"/>
<path d="M1206.85 338.109L1193.58 266.619C1193.58 266.619 1234.47 220.413 1245.28 211.943C1256.09 203.472 1305.01 181.539 1305.01 181.539L1358.55 217.947L1206.85 338.109Z" fill="#FFC727"/>
<path opacity="0.1" d="M1206.85 338.109L1193.58 266.619C1193.58 266.619 1234.47 220.413 1245.28 211.943C1256.09 203.472 1305.01 181.539 1305.01 181.539L1358.55 217.947L1206.85 338.109Z" fill="black"/>
<path d="M1418.29 221.171C1418.29 221.171 1307.98 273.951 1204.38 397.084L1206.98 338.109C1206.98 338.109 1273.03 249.616 1358.68 218.011L1418.29 221.171Z" fill="#FFC727"/>
<path opacity="0.2" d="M1418.29 221.171C1418.29 221.171 1307.98 273.951 1204.38 397.084L1206.98 338.109C1206.98 338.109 1273.03 249.616 1358.68 218.011L1418.29 221.171Z" fill="black"/>
<path d="M1204.19 503.34C1197.24 496.703 1230.24 476.096 1241.8 483.049C1253.37 490.002 1317.97 600.872 1312.98 737.469C1307.99 874.065 1028.98 1010.41 1016.4 991.256C1011.15 983.165 1012.29 962.685 1018.67 954.468C1027.65 942.837 1230.81 838.731 1243.64 753.082C1255.08 676.977 1234.03 531.974 1204.19 503.34Z" fill="#263238"/>
<path d="M1148.06 578.433C1065.89 739.744 1046.93 939.298 1070.82 964.013C1135.86 1030.45 1369.36 1034.87 1427.45 1033.86C1450.9 1033.42 1449.32 839.237 1424.29 837.467C1364.87 833.358 1230.3 817.492 1227.83 815.723C1222.59 811.867 1231.31 729.315 1228.97 597.585C1227.08 487.284 1181.57 512.442 1148.06 578.433Z" fill="#F7A9A0"/>
<path d="M1655.64 863.825C1653.05 876.467 1637.06 879.122 1637.06 879.122C1644.3 885.93 1648.95 895.049 1650.2 904.912C1651.59 922.421 1624.92 932.218 1624.92 932.218C1630.98 940.858 1634.31 951.121 1634.46 961.674C1634.08 978.551 1608.36 992.268 1608.36 992.268C1609.41 1003.26 1606.62 1014.27 1600.46 1023.43C1571.63 1063.32 1445.91 1042.39 1411.33 1028.61L1394.39 841.007C1394.39 841.007 1511.14 791.008 1562.53 797.708C1590.79 801.374 1662.66 829.249 1655.64 863.825Z" fill="#F7A9A0"/>
<path d="M1636.68 878.363C1608.42 864.647 1576.94 857.694 1546.48 851.31C1545.84 851.31 1545.59 852.195 1546.48 852.321C1576.82 858.326 1606.34 872.611 1636.42 879.817C1636.99 880.007 1637.37 878.743 1636.68 878.363Z" fill="#263238"/>
<path d="M1624.03 929.753C1617.32 927.254 1610.31 925.659 1603.18 925.012C1595.67 923.832 1588.15 922.758 1580.61 921.789C1565.57 919.956 1550.39 918.375 1535.22 917.301C1534.59 917.301 1534.34 918.249 1535.22 918.375C1550.27 920.272 1565.25 922.357 1580.17 924.696C1587.69 925.96 1595.15 927.351 1602.61 928.678C1609.55 930.458 1616.68 931.455 1623.84 931.649C1624.01 931.562 1624.16 931.435 1624.26 931.278C1624.37 931.121 1624.43 930.941 1624.45 930.753C1624.47 930.564 1624.44 930.374 1624.37 930.2C1624.3 930.025 1624.18 929.872 1624.03 929.753Z" fill="#263238"/>
<path d="M1607.47 992.204C1601.39 990.018 1594.98 988.885 1588.51 988.854L1567.9 986.642C1554.12 985.062 1540.34 983.481 1526.69 981.396C1526 981.396 1525.74 982.344 1526.69 982.47C1540.6 984.619 1554.5 986.958 1568.41 988.791C1575.24 989.802 1582.13 990.814 1588.95 991.699C1595.16 993.182 1601.59 993.525 1607.92 992.71C1607.94 992.646 1607.95 992.575 1607.94 992.507C1607.92 992.439 1607.89 992.375 1607.85 992.323C1607.8 992.271 1607.74 992.233 1607.68 992.212C1607.61 992.191 1607.54 992.188 1607.47 992.204Z" fill="#263238"/>
<path d="M1078.03 713.576L1234.98 732.539C1234.98 732.539 1246.04 622.617 1233.59 557.195C1221.13 491.772 1184.09 507.196 1150.91 562.883C1117.72 618.571 1078.03 713.576 1078.03 713.576Z" fill="#FFC727"/>
<path d="M1232.13 697.457C1188.25 688.286 1143.8 682.078 1099.08 678.873C1099.08 678.873 1098.63 679.885 1099.08 679.948C1135.04 687.154 1207.73 696.13 1231.82 698.911C1232.13 699.037 1232.13 697.457 1232.13 697.457Z" fill="#263238"/>
<path d="M1228.02 731.906H1235.04L1234.35 732.475C1234.35 723.689 1234.66 714.966 1234.85 706.243C1235.8 681.844 1237.76 652.136 1239.47 627.8C1242.64 662.735 1241.34 697.932 1235.61 732.538V733.234C1233.08 732.791 1230.62 732.222 1228.15 731.654L1228.02 731.906Z" fill="#263238"/>
<path d="M1663.03 241.019C1663.03 241.019 1570.12 142.159 1498.69 116.306C1468.73 105.434 1334.72 88.3674 1329.48 120.604C1324.74 149.807 1441.42 151.388 1441.42 151.388C1441.42 151.388 1323.79 139.378 1324.55 175.597C1325.3 211.816 1457.29 196.077 1457.29 196.077C1457.29 196.077 1336.18 186.406 1342.88 223.636C1347.87 251.765 1468.35 244.243 1468.35 244.243C1468.35 244.243 1364.18 236.721 1368.1 265.86C1372.46 298.034 1484.02 298.097 1484.02 298.097C1491.36 352.332 1511.52 378.121 1542.37 392.912C1549.76 396.199 1663.03 241.019 1663.03 241.019Z" fill="#F7A9A0"/>
<path d="M1482.19 152.904C1468.47 151.008 1454.51 148.986 1440.66 148.29C1426.82 147.595 1412.85 147.468 1398.94 148.29C1380.78 148.7 1362.72 151.246 1345.15 155.875C1376.76 150.06 1426.69 151.704 1440.6 152.399C1454.51 153.094 1468.35 153.031 1482.19 153.726C1482.57 153.473 1482.57 152.968 1482.19 152.904Z" fill="#263238"/>
<path d="M1480.67 203.093C1462.98 201.45 1445.53 199.111 1427.77 198.226C1410.01 197.341 1393.19 198.226 1375.56 198.226C1374.17 198.226 1374.61 198.984 1376 198.984C1393.7 199.364 1410.01 201.134 1427.7 201.703C1445.4 202.271 1463.1 202.208 1480.67 203.409C1480.93 203.536 1480.93 203.156 1480.67 203.093Z" fill="#263238"/>
<path d="M1487.12 246.455C1460.06 243.2 1432.73 242.756 1405.58 245.128C1404.25 245.128 1404.95 246.076 1406.34 246.076C1433.39 246.076 1454.7 246.076 1486.93 247.34C1487.44 247.403 1487.69 246.518 1487.12 246.455Z" fill="#263238"/>
<path d="M1410.32 291.018C1395.34 289.88 1357.48 281.852 1368.1 259.919C1378.65 247.972 1395.97 245.633 1410.83 242.978V247.34C1392.4 246.782 1374.18 243.305 1356.85 237.037C1351.47 234.572 1345.03 231.474 1343.13 225.406C1346.48 230.43 1351.64 233.964 1357.54 235.267C1374.99 239.966 1392.95 242.534 1411.02 242.915L1432.7 243.8C1414.3 247.277 1391.74 248.794 1375.81 258.465C1374.18 259.248 1372.79 260.463 1371.8 261.978C1370.81 263.494 1370.25 265.252 1370.18 267.061C1370.36 268.96 1370.92 270.802 1371.84 272.475C1372.75 274.149 1373.99 275.619 1375.49 276.796C1385.95 284.067 1397.89 288.925 1410.45 291.018H1410.32Z" fill="#263238"/>
</svg>
