<svg width="50" height="51" viewBox="0 0 50 51" fill="none" xmlns="http://www.w3.org/2000/svg">
<path d="M38.7833 30.9331C38.0536 33.4716 36.6074 35.7458 34.618 37.4833C32.6285 39.2207 30.1803 40.3476 27.5667 40.729C25.5228 41.0255 23.4401 40.906 21.4436 40.3776C19.4471 39.8492 17.578 38.9228 15.9484 37.654C14.3188 36.3853 12.9624 34.8003 11.9606 32.9943C10.9588 31.1883 10.3322 29.1985 10.1186 27.1444C9.95304 25.0821 10.2172 23.008 10.8943 21.0531C11.5714 19.0981 12.6468 17.305 14.0524 15.7869C15.458 14.2689 17.1633 13.059 19.0604 12.2337C20.9575 11.4084 23.0052 10.9857 25.0741 10.9924C27.0127 10.9951 28.933 11.3673 30.7323 12.0891C31.0156 12.2163 31.3362 12.2331 31.6313 12.1363C31.9264 12.0395 32.1747 11.836 32.3275 11.5657L35.9169 4.96031C35.9941 4.80816 36.0406 4.64226 36.0536 4.47212C36.0666 4.30198 36.0458 4.13095 35.9926 3.96884C35.9393 3.80673 35.8546 3.65674 35.7432 3.52746C35.6318 3.39818 35.496 3.29216 35.3436 3.2155C31.4893 1.47046 27.2543 0.735222 23.0374 1.07902C18.8205 1.42281 14.7605 2.83433 11.2399 5.18063C7.71916 7.52692 4.85364 10.7308 2.91318 14.4904C0.972722 18.2501 0.0211876 22.4418 0.148199 26.6708C0.393833 32.9518 2.97573 38.9149 7.38812 43.3918C11.8005 47.8688 17.7254 50.537 24.0023 50.8738C30.5776 51.1654 37.0013 48.8445 41.8718 44.4177C46.7423 39.9908 49.6642 33.8172 50 27.2441V22.2589C49.9936 21.9303 49.8603 21.617 49.6279 21.3847C49.3956 21.1523 49.0822 21.019 48.7537 21.0126H26.3204C25.9899 21.0126 25.6729 21.1439 25.4391 21.3776C25.2054 21.6113 25.0741 21.9283 25.0741 22.2589V29.7367C25.0741 30.0672 25.2054 30.3842 25.4391 30.6179C25.6729 30.8516 25.9899 30.983 26.3204 30.983H38.7833" fill="black"/>
</svg>
